<mxfile host="app.diagrams.net" modified="2024-04-27T13:34:49.883Z" agent="Mozilla/5.0 (Macintosh; Intel Mac OS X 10_15_7) AppleWebKit/605.1.15 (KHTML, like Gecko) Version/17.4.1 Safari/605.1.15" etag="cQ1wWulNCodl1TfVgmed" version="24.2.7" type="device">
  <diagram id="C5RBs43oDa-KdzZeNtuy" name="Page-1">
    <mxGraphModel dx="5130" dy="3460" grid="1" gridSize="10" guides="1" tooltips="1" connect="1" arrows="1" fold="1" page="1" pageScale="1" pageWidth="90000000" pageHeight="20000" math="0" shadow="0">
      <root>
        <mxCell id="WIyWlLk6GJQsqaUBKTNV-0" />
        <mxCell id="WIyWlLk6GJQsqaUBKTNV-1" parent="WIyWlLk6GJQsqaUBKTNV-0" />
        <mxCell id="3XaSXXcbDHOcGcoVshW3-0" value="galeria" style="swimlane;whiteSpace=wrap;html=1;fillColor=#ffe6cc;strokeColor=#d79b00;" vertex="1" parent="WIyWlLk6GJQsqaUBKTNV-1">
          <mxGeometry width="4410" height="2750" as="geometry" />
        </mxCell>
        <mxCell id="3XaSXXcbDHOcGcoVshW3-1" value="exeptions" style="swimlane;whiteSpace=wrap;html=1;fillColor=#f5f5f5;fontColor=#333333;strokeColor=#666666;" vertex="1" parent="3XaSXXcbDHOcGcoVshW3-0">
          <mxGeometry x="40" y="70" width="360" height="220" as="geometry" />
        </mxCell>
        <mxCell id="3XaSXXcbDHOcGcoVshW3-30" value="" style="edgeStyle=orthogonalEdgeStyle;rounded=0;orthogonalLoop=1;jettySize=auto;html=1;endArrow=block;endFill=0;" edge="1" parent="3XaSXXcbDHOcGcoVshW3-1" source="zkfFHV4jXpPFQw0GAbJ--17" target="3XaSXXcbDHOcGcoVshW3-27">
          <mxGeometry relative="1" as="geometry" />
        </mxCell>
        <mxCell id="zkfFHV4jXpPFQw0GAbJ--17" value="InformacionInconsistenteException" style="swimlane;fontStyle=0;align=center;verticalAlign=top;childLayout=stackLayout;horizontal=1;startSize=26;horizontalStack=0;resizeParent=1;resizeLast=0;collapsible=1;marginBottom=0;rounded=0;shadow=0;strokeWidth=1;" parent="3XaSXXcbDHOcGcoVshW3-1" vertex="1">
          <mxGeometry x="32.5" y="135" width="295" height="70" as="geometry">
            <mxRectangle x="550" y="140" width="160" height="26" as="alternateBounds" />
          </mxGeometry>
        </mxCell>
        <mxCell id="zkfFHV4jXpPFQw0GAbJ--23" value="" style="line;html=1;strokeWidth=1;align=left;verticalAlign=middle;spacingTop=-1;spacingLeft=3;spacingRight=3;rotatable=0;labelPosition=right;points=[];portConstraint=eastwest;" parent="zkfFHV4jXpPFQw0GAbJ--17" vertex="1">
          <mxGeometry y="26" width="295" height="8" as="geometry" />
        </mxCell>
        <mxCell id="zkfFHV4jXpPFQw0GAbJ--24" value="+InformacionInconsistenteException(String mensaje)" style="text;align=left;verticalAlign=top;spacingLeft=4;spacingRight=4;overflow=hidden;rotatable=0;points=[[0,0.5],[1,0.5]];portConstraint=eastwest;" parent="zkfFHV4jXpPFQw0GAbJ--17" vertex="1">
          <mxGeometry y="34" width="295" height="26" as="geometry" />
        </mxCell>
        <mxCell id="3XaSXXcbDHOcGcoVshW3-27" value="Exeption" style="swimlane;fontStyle=0;align=center;verticalAlign=top;childLayout=stackLayout;horizontal=1;startSize=26;horizontalStack=0;resizeParent=1;resizeLast=0;collapsible=1;marginBottom=0;rounded=0;shadow=0;strokeWidth=1;" vertex="1" parent="3XaSXXcbDHOcGcoVshW3-1">
          <mxGeometry x="113.75" y="45" width="132.5" height="40" as="geometry">
            <mxRectangle x="550" y="140" width="160" height="26" as="alternateBounds" />
          </mxGeometry>
        </mxCell>
        <mxCell id="3XaSXXcbDHOcGcoVshW3-28" value="" style="line;html=1;strokeWidth=1;align=left;verticalAlign=middle;spacingTop=-1;spacingLeft=3;spacingRight=3;rotatable=0;labelPosition=right;points=[];portConstraint=eastwest;" vertex="1" parent="3XaSXXcbDHOcGcoVshW3-27">
          <mxGeometry y="26" width="132.5" height="8" as="geometry" />
        </mxCell>
        <mxCell id="3XaSXXcbDHOcGcoVshW3-4" value="persistencia" style="swimlane;whiteSpace=wrap;html=1;fillColor=#f8cecc;strokeColor=#b85450;" vertex="1" parent="3XaSXXcbDHOcGcoVshW3-0">
          <mxGeometry x="40" y="370" width="740" height="460" as="geometry" />
        </mxCell>
        <mxCell id="3XaSXXcbDHOcGcoVshW3-26" value="&amp;lt;&amp;lt;builds&amp;gt;&amp;gt;" style="edgeStyle=orthogonalEdgeStyle;rounded=0;orthogonalLoop=1;jettySize=auto;html=1;entryX=0.5;entryY=0;entryDx=0;entryDy=0;" edge="1" parent="3XaSXXcbDHOcGcoVshW3-4" source="3XaSXXcbDHOcGcoVshW3-11" target="3XaSXXcbDHOcGcoVshW3-21">
          <mxGeometry x="0.0769" y="38" relative="1" as="geometry">
            <mxPoint x="-1" as="offset" />
          </mxGeometry>
        </mxCell>
        <mxCell id="3XaSXXcbDHOcGcoVshW3-11" value="CentralPersistencia" style="swimlane;fontStyle=0;align=center;verticalAlign=top;childLayout=stackLayout;horizontal=1;startSize=26;horizontalStack=0;resizeParent=1;resizeLast=0;collapsible=1;marginBottom=0;rounded=0;shadow=0;strokeWidth=1;" vertex="1" parent="3XaSXXcbDHOcGcoVshW3-4">
          <mxGeometry x="35" y="39" width="375" height="86" as="geometry">
            <mxRectangle x="550" y="140" width="160" height="26" as="alternateBounds" />
          </mxGeometry>
        </mxCell>
        <mxCell id="3XaSXXcbDHOcGcoVshW3-13" value="+JASON = &quot;JASON&quot;" style="text;align=left;verticalAlign=top;spacingLeft=4;spacingRight=4;overflow=hidden;rotatable=0;points=[[0,0.5],[1,0.5]];portConstraint=eastwest;fontStyle=4" vertex="1" parent="3XaSXXcbDHOcGcoVshW3-11">
          <mxGeometry y="26" width="375" height="26" as="geometry" />
        </mxCell>
        <mxCell id="3XaSXXcbDHOcGcoVshW3-12" value="" style="line;html=1;strokeWidth=1;align=left;verticalAlign=middle;spacingTop=-1;spacingLeft=3;spacingRight=3;rotatable=0;labelPosition=right;points=[];portConstraint=eastwest;" vertex="1" parent="3XaSXXcbDHOcGcoVshW3-11">
          <mxGeometry y="52" width="375" height="8" as="geometry" />
        </mxCell>
        <mxCell id="3XaSXXcbDHOcGcoVshW3-20" value="+ getPersistenciaGaleria(String tipoArchivo): IPersistenciaGaleria&#xa;" style="text;align=left;verticalAlign=top;spacingLeft=4;spacingRight=4;overflow=hidden;rotatable=0;points=[[0,0.5],[1,0.5]];portConstraint=eastwest;fontStyle=4" vertex="1" parent="3XaSXXcbDHOcGcoVshW3-11">
          <mxGeometry y="60" width="375" height="26" as="geometry" />
        </mxCell>
        <mxCell id="3XaSXXcbDHOcGcoVshW3-35" style="edgeStyle=orthogonalEdgeStyle;rounded=0;orthogonalLoop=1;jettySize=auto;html=1;entryX=0.5;entryY=0;entryDx=0;entryDy=0;dashed=1;dashPattern=8 8;endArrow=block;endFill=0;" edge="1" parent="3XaSXXcbDHOcGcoVshW3-4" source="3XaSXXcbDHOcGcoVshW3-21" target="3XaSXXcbDHOcGcoVshW3-31">
          <mxGeometry relative="1" as="geometry" />
        </mxCell>
        <mxCell id="3XaSXXcbDHOcGcoVshW3-21" value="CentralPersistencia" style="swimlane;fontStyle=0;align=center;verticalAlign=top;childLayout=stackLayout;horizontal=1;startSize=26;horizontalStack=0;resizeParent=1;resizeLast=0;collapsible=1;marginBottom=0;rounded=0;shadow=0;strokeWidth=1;" vertex="1" parent="3XaSXXcbDHOcGcoVshW3-4">
          <mxGeometry x="35" y="190" width="375" height="86" as="geometry">
            <mxRectangle x="550" y="140" width="160" height="26" as="alternateBounds" />
          </mxGeometry>
        </mxCell>
        <mxCell id="3XaSXXcbDHOcGcoVshW3-23" value="" style="line;html=1;strokeWidth=1;align=left;verticalAlign=middle;spacingTop=-1;spacingLeft=3;spacingRight=3;rotatable=0;labelPosition=right;points=[];portConstraint=eastwest;" vertex="1" parent="3XaSXXcbDHOcGcoVshW3-21">
          <mxGeometry y="26" width="375" height="8" as="geometry" />
        </mxCell>
        <mxCell id="3XaSXXcbDHOcGcoVshW3-24" value="+cargarGaleria(String archivo, Galeria galeria): void &#xa;" style="text;align=left;verticalAlign=top;spacingLeft=4;spacingRight=4;overflow=hidden;rotatable=0;points=[[0,0.5],[1,0.5]];portConstraint=eastwest;fontStyle=0" vertex="1" parent="3XaSXXcbDHOcGcoVshW3-21">
          <mxGeometry y="34" width="375" height="26" as="geometry" />
        </mxCell>
        <mxCell id="3XaSXXcbDHOcGcoVshW3-25" value="+salvarAerolinea(String archivo, Galeria galeria): void &#xa;" style="text;align=left;verticalAlign=top;spacingLeft=4;spacingRight=4;overflow=hidden;rotatable=0;points=[[0,0.5],[1,0.5]];portConstraint=eastwest;fontStyle=0" vertex="1" parent="3XaSXXcbDHOcGcoVshW3-21">
          <mxGeometry y="60" width="375" height="26" as="geometry" />
        </mxCell>
        <mxCell id="3XaSXXcbDHOcGcoVshW3-46" style="edgeStyle=orthogonalEdgeStyle;rounded=0;orthogonalLoop=1;jettySize=auto;html=1;" edge="1" parent="3XaSXXcbDHOcGcoVshW3-4" source="3XaSXXcbDHOcGcoVshW3-31" target="3XaSXXcbDHOcGcoVshW3-40">
          <mxGeometry relative="1" as="geometry">
            <Array as="points">
              <mxPoint x="560" y="410" />
              <mxPoint x="560" y="290" />
            </Array>
          </mxGeometry>
        </mxCell>
        <mxCell id="3XaSXXcbDHOcGcoVshW3-51" value="&amp;lt;&amp;lt;builds&amp;gt;&amp;gt;" style="edgeLabel;html=1;align=center;verticalAlign=middle;resizable=0;points=[];" vertex="1" connectable="0" parent="3XaSXXcbDHOcGcoVshW3-46">
          <mxGeometry x="-0.7816" y="1" relative="1" as="geometry">
            <mxPoint as="offset" />
          </mxGeometry>
        </mxCell>
        <mxCell id="3XaSXXcbDHOcGcoVshW3-47" style="edgeStyle=orthogonalEdgeStyle;rounded=0;orthogonalLoop=1;jettySize=auto;html=1;" edge="1" parent="3XaSXXcbDHOcGcoVshW3-4" source="3XaSXXcbDHOcGcoVshW3-31" target="3XaSXXcbDHOcGcoVshW3-38">
          <mxGeometry relative="1" as="geometry">
            <Array as="points">
              <mxPoint x="540" y="390" />
              <mxPoint x="540" y="190" />
            </Array>
          </mxGeometry>
        </mxCell>
        <mxCell id="3XaSXXcbDHOcGcoVshW3-50" value="&amp;lt;&amp;lt;builds&amp;gt;&amp;gt;" style="edgeLabel;html=1;align=center;verticalAlign=middle;resizable=0;points=[];" vertex="1" connectable="0" parent="3XaSXXcbDHOcGcoVshW3-47">
          <mxGeometry x="-0.8228" y="2" relative="1" as="geometry">
            <mxPoint as="offset" />
          </mxGeometry>
        </mxCell>
        <mxCell id="3XaSXXcbDHOcGcoVshW3-31" value="&lt;&lt;interface&gt;&gt;" style="swimlane;fontStyle=0;align=center;verticalAlign=top;childLayout=stackLayout;horizontal=1;startSize=26;horizontalStack=0;resizeParent=1;resizeLast=0;collapsible=1;marginBottom=0;rounded=0;shadow=0;strokeWidth=1;" vertex="1" parent="3XaSXXcbDHOcGcoVshW3-4">
          <mxGeometry x="35" y="350" width="375" height="86" as="geometry">
            <mxRectangle x="550" y="140" width="160" height="26" as="alternateBounds" />
          </mxGeometry>
        </mxCell>
        <mxCell id="3XaSXXcbDHOcGcoVshW3-32" value="" style="line;html=1;strokeWidth=1;align=left;verticalAlign=middle;spacingTop=-1;spacingLeft=3;spacingRight=3;rotatable=0;labelPosition=right;points=[];portConstraint=eastwest;" vertex="1" parent="3XaSXXcbDHOcGcoVshW3-31">
          <mxGeometry y="26" width="375" height="8" as="geometry" />
        </mxCell>
        <mxCell id="3XaSXXcbDHOcGcoVshW3-33" value="+cargarGaleria(String archivo, Galeria galeria): void &#xa;" style="text;align=left;verticalAlign=top;spacingLeft=4;spacingRight=4;overflow=hidden;rotatable=0;points=[[0,0.5],[1,0.5]];portConstraint=eastwest;fontStyle=0" vertex="1" parent="3XaSXXcbDHOcGcoVshW3-31">
          <mxGeometry y="34" width="375" height="26" as="geometry" />
        </mxCell>
        <mxCell id="3XaSXXcbDHOcGcoVshW3-34" value="+salvarAerolinea(String archivo, Galeria galeria): void &#xa;" style="text;align=left;verticalAlign=top;spacingLeft=4;spacingRight=4;overflow=hidden;rotatable=0;points=[[0,0.5],[1,0.5]];portConstraint=eastwest;fontStyle=0" vertex="1" parent="3XaSXXcbDHOcGcoVshW3-31">
          <mxGeometry y="60" width="375" height="26" as="geometry" />
        </mxCell>
        <mxCell id="3XaSXXcbDHOcGcoVshW3-38" value="Usuario" style="swimlane;fontStyle=0;align=center;verticalAlign=top;childLayout=stackLayout;horizontal=1;startSize=26;horizontalStack=0;resizeParent=1;resizeLast=0;collapsible=1;marginBottom=0;rounded=0;shadow=0;strokeWidth=1;" vertex="1" parent="3XaSXXcbDHOcGcoVshW3-4">
          <mxGeometry x="580" y="170" width="132.5" height="40" as="geometry">
            <mxRectangle x="550" y="140" width="160" height="26" as="alternateBounds" />
          </mxGeometry>
        </mxCell>
        <mxCell id="3XaSXXcbDHOcGcoVshW3-39" value="" style="line;html=1;strokeWidth=1;align=left;verticalAlign=middle;spacingTop=-1;spacingLeft=3;spacingRight=3;rotatable=0;labelPosition=right;points=[];portConstraint=eastwest;" vertex="1" parent="3XaSXXcbDHOcGcoVshW3-38">
          <mxGeometry y="26" width="132.5" height="8" as="geometry" />
        </mxCell>
        <mxCell id="3XaSXXcbDHOcGcoVshW3-40" value="Ventas" style="swimlane;fontStyle=0;align=center;verticalAlign=top;childLayout=stackLayout;horizontal=1;startSize=26;horizontalStack=0;resizeParent=1;resizeLast=0;collapsible=1;marginBottom=0;rounded=0;shadow=0;strokeWidth=1;" vertex="1" parent="3XaSXXcbDHOcGcoVshW3-4">
          <mxGeometry x="580" y="270" width="132.5" height="40" as="geometry">
            <mxRectangle x="550" y="140" width="160" height="26" as="alternateBounds" />
          </mxGeometry>
        </mxCell>
        <mxCell id="3XaSXXcbDHOcGcoVshW3-41" value="" style="line;html=1;strokeWidth=1;align=left;verticalAlign=middle;spacingTop=-1;spacingLeft=3;spacingRight=3;rotatable=0;labelPosition=right;points=[];portConstraint=eastwest;" vertex="1" parent="3XaSXXcbDHOcGcoVshW3-40">
          <mxGeometry y="26" width="132.5" height="8" as="geometry" />
        </mxCell>
        <mxCell id="3XaSXXcbDHOcGcoVshW3-48" style="edgeStyle=orthogonalEdgeStyle;rounded=0;orthogonalLoop=1;jettySize=auto;html=1;" edge="1" parent="3XaSXXcbDHOcGcoVshW3-0" source="3XaSXXcbDHOcGcoVshW3-31" target="3XaSXXcbDHOcGcoVshW3-55">
          <mxGeometry relative="1" as="geometry">
            <Array as="points">
              <mxPoint x="560" y="740" />
              <mxPoint x="560" y="163" />
            </Array>
          </mxGeometry>
        </mxCell>
        <mxCell id="3XaSXXcbDHOcGcoVshW3-49" value="&amp;lt;&amp;lt;builds&amp;gt;&amp;gt;" style="edgeLabel;html=1;align=center;verticalAlign=middle;resizable=0;points=[];" vertex="1" connectable="0" parent="3XaSXXcbDHOcGcoVshW3-48">
          <mxGeometry x="-0.8469" y="1" relative="1" as="geometry">
            <mxPoint x="-46" y="1" as="offset" />
          </mxGeometry>
        </mxCell>
        <mxCell id="3XaSXXcbDHOcGcoVshW3-59" value="modelo" style="swimlane;whiteSpace=wrap;html=1;fillColor=#dae8fc;strokeColor=#6c8ebf;" vertex="1" parent="3XaSXXcbDHOcGcoVshW3-0">
          <mxGeometry x="800" y="70" width="1300" height="420" as="geometry" />
        </mxCell>
        <mxCell id="3XaSXXcbDHOcGcoVshW3-55" value="Inventario" style="swimlane;fontStyle=0;align=center;verticalAlign=top;childLayout=stackLayout;horizontal=1;startSize=26;horizontalStack=0;resizeParent=1;resizeLast=0;collapsible=1;marginBottom=0;rounded=0;shadow=0;strokeWidth=1;" vertex="1" parent="3XaSXXcbDHOcGcoVshW3-59">
          <mxGeometry x="73.13" y="39" width="253.75" height="358" as="geometry">
            <mxRectangle x="550" y="140" width="160" height="26" as="alternateBounds" />
          </mxGeometry>
        </mxCell>
        <mxCell id="3XaSXXcbDHOcGcoVshW3-57" value="" style="line;html=1;strokeWidth=1;align=left;verticalAlign=middle;spacingTop=-1;spacingLeft=3;spacingRight=3;rotatable=0;labelPosition=right;points=[];portConstraint=eastwest;" vertex="1" parent="3XaSXXcbDHOcGcoVshW3-55">
          <mxGeometry y="26" width="253.75" height="8" as="geometry" />
        </mxCell>
        <mxCell id="3XaSXXcbDHOcGcoVshW3-62" value="+Inventario () &#xa;" style="text;align=left;verticalAlign=top;spacingLeft=4;spacingRight=4;overflow=hidden;rotatable=0;points=[[0,0.5],[1,0.5]];portConstraint=eastwest;fontStyle=0" vertex="1" parent="3XaSXXcbDHOcGcoVshW3-55">
          <mxGeometry y="34" width="253.75" height="26" as="geometry" />
        </mxCell>
        <mxCell id="3XaSXXcbDHOcGcoVshW3-66" value="+addPieza (Pieza pieza): void&#xa;" style="text;align=left;verticalAlign=top;spacingLeft=4;spacingRight=4;overflow=hidden;rotatable=0;points=[[0,0.5],[1,0.5]];portConstraint=eastwest;fontStyle=0" vertex="1" parent="3XaSXXcbDHOcGcoVshW3-55">
          <mxGeometry y="60" width="253.75" height="26" as="geometry" />
        </mxCell>
        <mxCell id="3XaSXXcbDHOcGcoVshW3-65" value="+addPiezaPasada (Pieza pieza): void&#xa;" style="text;align=left;verticalAlign=top;spacingLeft=4;spacingRight=4;overflow=hidden;rotatable=0;points=[[0,0.5],[1,0.5]];portConstraint=eastwest;fontStyle=0" vertex="1" parent="3XaSXXcbDHOcGcoVshW3-55">
          <mxGeometry y="86" width="253.75" height="26" as="geometry" />
        </mxCell>
        <mxCell id="3XaSXXcbDHOcGcoVshW3-67" value="+addPiezaBodega (Pieza pieza): void&#xa;" style="text;align=left;verticalAlign=top;spacingLeft=4;spacingRight=4;overflow=hidden;rotatable=0;points=[[0,0.5],[1,0.5]];portConstraint=eastwest;fontStyle=0" vertex="1" parent="3XaSXXcbDHOcGcoVshW3-55">
          <mxGeometry y="112" width="253.75" height="26" as="geometry" />
        </mxCell>
        <mxCell id="3XaSXXcbDHOcGcoVshW3-64" value="+addPiezaExhibicion (Pieza pieza): void&#xa;" style="text;align=left;verticalAlign=top;spacingLeft=4;spacingRight=4;overflow=hidden;rotatable=0;points=[[0,0.5],[1,0.5]];portConstraint=eastwest;fontStyle=0" vertex="1" parent="3XaSXXcbDHOcGcoVshW3-55">
          <mxGeometry y="138" width="253.75" height="22" as="geometry" />
        </mxCell>
        <mxCell id="3XaSXXcbDHOcGcoVshW3-68" value="+addPiezasVentaFija (Pieza pieza): void&#xa;" style="text;align=left;verticalAlign=top;spacingLeft=4;spacingRight=4;overflow=hidden;rotatable=0;points=[[0,0.5],[1,0.5]];portConstraint=eastwest;fontStyle=0" vertex="1" parent="3XaSXXcbDHOcGcoVshW3-55">
          <mxGeometry y="160" width="253.75" height="22" as="geometry" />
        </mxCell>
        <mxCell id="3XaSXXcbDHOcGcoVshW3-69" value="+addPiezasSubasta (Pieza pieza): void&#xa;" style="text;align=left;verticalAlign=top;spacingLeft=4;spacingRight=4;overflow=hidden;rotatable=0;points=[[0,0.5],[1,0.5]];portConstraint=eastwest;fontStyle=0" vertex="1" parent="3XaSXXcbDHOcGcoVshW3-55">
          <mxGeometry y="182" width="253.75" height="22" as="geometry" />
        </mxCell>
        <mxCell id="3XaSXXcbDHOcGcoVshW3-70" value="+getPieza (int identificadorUnico): Pieza&#xa;" style="text;align=left;verticalAlign=top;spacingLeft=4;spacingRight=4;overflow=hidden;rotatable=0;points=[[0,0.5],[1,0.5]];portConstraint=eastwest;fontStyle=0" vertex="1" parent="3XaSXXcbDHOcGcoVshW3-55">
          <mxGeometry y="204" width="253.75" height="22" as="geometry" />
        </mxCell>
        <mxCell id="3XaSXXcbDHOcGcoVshW3-71" value="+getPiezas() :List&lt;Pieza&gt;&#xa;" style="text;align=left;verticalAlign=top;spacingLeft=4;spacingRight=4;overflow=hidden;rotatable=0;points=[[0,0.5],[1,0.5]];portConstraint=eastwest;fontStyle=0" vertex="1" parent="3XaSXXcbDHOcGcoVshW3-55">
          <mxGeometry y="226" width="253.75" height="22" as="geometry" />
        </mxCell>
        <mxCell id="3XaSXXcbDHOcGcoVshW3-72" value="+getPiezasPasadas() :List&lt;Pieza&gt;&#xa;" style="text;align=left;verticalAlign=top;spacingLeft=4;spacingRight=4;overflow=hidden;rotatable=0;points=[[0,0.5],[1,0.5]];portConstraint=eastwest;fontStyle=0" vertex="1" parent="3XaSXXcbDHOcGcoVshW3-55">
          <mxGeometry y="248" width="253.75" height="22" as="geometry" />
        </mxCell>
        <mxCell id="3XaSXXcbDHOcGcoVshW3-73" value="+getPiezasBodega() :List&lt;Pieza&gt;&#xa;" style="text;align=left;verticalAlign=top;spacingLeft=4;spacingRight=4;overflow=hidden;rotatable=0;points=[[0,0.5],[1,0.5]];portConstraint=eastwest;fontStyle=0" vertex="1" parent="3XaSXXcbDHOcGcoVshW3-55">
          <mxGeometry y="270" width="253.75" height="22" as="geometry" />
        </mxCell>
        <mxCell id="3XaSXXcbDHOcGcoVshW3-74" value="+getPiezasExhibicion() :List&lt;Pieza&gt;&#xa;" style="text;align=left;verticalAlign=top;spacingLeft=4;spacingRight=4;overflow=hidden;rotatable=0;points=[[0,0.5],[1,0.5]];portConstraint=eastwest;fontStyle=0" vertex="1" parent="3XaSXXcbDHOcGcoVshW3-55">
          <mxGeometry y="292" width="253.75" height="22" as="geometry" />
        </mxCell>
        <mxCell id="3XaSXXcbDHOcGcoVshW3-75" value="+getPiezasVentaFija() :List&lt;Pieza&gt;&#xa;" style="text;align=left;verticalAlign=top;spacingLeft=4;spacingRight=4;overflow=hidden;rotatable=0;points=[[0,0.5],[1,0.5]];portConstraint=eastwest;fontStyle=0" vertex="1" parent="3XaSXXcbDHOcGcoVshW3-55">
          <mxGeometry y="314" width="253.75" height="22" as="geometry" />
        </mxCell>
        <mxCell id="3XaSXXcbDHOcGcoVshW3-76" value="+getPiezasSubasta() :List&lt;Pieza&gt;&#xa;" style="text;align=left;verticalAlign=top;spacingLeft=4;spacingRight=4;overflow=hidden;rotatable=0;points=[[0,0.5],[1,0.5]];portConstraint=eastwest;fontStyle=0" vertex="1" parent="3XaSXXcbDHOcGcoVshW3-55">
          <mxGeometry y="336" width="253.75" height="22" as="geometry" />
        </mxCell>
        <mxCell id="3XaSXXcbDHOcGcoVshW3-93" style="edgeStyle=orthogonalEdgeStyle;rounded=0;orthogonalLoop=1;jettySize=auto;html=1;" edge="1" parent="3XaSXXcbDHOcGcoVshW3-59" source="3XaSXXcbDHOcGcoVshW3-77" target="3XaSXXcbDHOcGcoVshW3-55">
          <mxGeometry relative="1" as="geometry" />
        </mxCell>
        <mxCell id="3XaSXXcbDHOcGcoVshW3-94" value="inventario" style="edgeLabel;html=1;align=center;verticalAlign=middle;resizable=0;points=[];" vertex="1" connectable="0" parent="3XaSXXcbDHOcGcoVshW3-93">
          <mxGeometry x="-0.2642" y="2" relative="1" as="geometry">
            <mxPoint x="56" y="-10" as="offset" />
          </mxGeometry>
        </mxCell>
        <mxCell id="3XaSXXcbDHOcGcoVshW3-95" value="1" style="edgeLabel;html=1;align=center;verticalAlign=middle;resizable=0;points=[];" vertex="1" connectable="0" parent="3XaSXXcbDHOcGcoVshW3-93">
          <mxGeometry x="0.8302" relative="1" as="geometry">
            <mxPoint x="-5" y="-8" as="offset" />
          </mxGeometry>
        </mxCell>
        <mxCell id="3XaSXXcbDHOcGcoVshW3-77" value="Galeria" style="swimlane;fontStyle=0;align=center;verticalAlign=top;childLayout=stackLayout;horizontal=1;startSize=26;horizontalStack=0;resizeParent=1;resizeLast=0;collapsible=1;marginBottom=0;rounded=0;shadow=0;strokeWidth=1;" vertex="1" parent="3XaSXXcbDHOcGcoVshW3-59">
          <mxGeometry x="700" y="122.5" width="520" height="191" as="geometry">
            <mxRectangle x="550" y="140" width="160" height="26" as="alternateBounds" />
          </mxGeometry>
        </mxCell>
        <mxCell id="3XaSXXcbDHOcGcoVshW3-78" value="" style="line;html=1;strokeWidth=1;align=left;verticalAlign=middle;spacingTop=-1;spacingLeft=3;spacingRight=3;rotatable=0;labelPosition=right;points=[];portConstraint=eastwest;" vertex="1" parent="3XaSXXcbDHOcGcoVshW3-77">
          <mxGeometry y="26" width="520" height="8" as="geometry" />
        </mxCell>
        <mxCell id="3XaSXXcbDHOcGcoVshW3-79" value="+Galeria (Inventario inventario, UserManager userManager, VentasManager ventasManager) &#xa;" style="text;align=left;verticalAlign=top;spacingLeft=4;spacingRight=4;overflow=hidden;rotatable=0;points=[[0,0.5],[1,0.5]];portConstraint=eastwest;fontStyle=0" vertex="1" parent="3XaSXXcbDHOcGcoVshW3-77">
          <mxGeometry y="34" width="520" height="26" as="geometry" />
        </mxCell>
        <mxCell id="3XaSXXcbDHOcGcoVshW3-80" value="+getInventario (): Inventario&#xa;" style="text;align=left;verticalAlign=top;spacingLeft=4;spacingRight=4;overflow=hidden;rotatable=0;points=[[0,0.5],[1,0.5]];portConstraint=eastwest;fontStyle=0" vertex="1" parent="3XaSXXcbDHOcGcoVshW3-77">
          <mxGeometry y="60" width="520" height="26" as="geometry" />
        </mxCell>
        <mxCell id="3XaSXXcbDHOcGcoVshW3-81" value="+getUserManager (): UserManager&#xa;" style="text;align=left;verticalAlign=top;spacingLeft=4;spacingRight=4;overflow=hidden;rotatable=0;points=[[0,0.5],[1,0.5]];portConstraint=eastwest;fontStyle=0" vertex="1" parent="3XaSXXcbDHOcGcoVshW3-77">
          <mxGeometry y="86" width="520" height="26" as="geometry" />
        </mxCell>
        <mxCell id="3XaSXXcbDHOcGcoVshW3-82" value="+getVentasManager (): VentasManager&#xa;" style="text;align=left;verticalAlign=top;spacingLeft=4;spacingRight=4;overflow=hidden;rotatable=0;points=[[0,0.5],[1,0.5]];portConstraint=eastwest;fontStyle=0" vertex="1" parent="3XaSXXcbDHOcGcoVshW3-77">
          <mxGeometry y="112" width="520" height="26" as="geometry" />
        </mxCell>
        <mxCell id="3XaSXXcbDHOcGcoVshW3-83" value="+cargarGaleria (String archivo): void&#xa;" style="text;align=left;verticalAlign=top;spacingLeft=4;spacingRight=4;overflow=hidden;rotatable=0;points=[[0,0.5],[1,0.5]];portConstraint=eastwest;fontStyle=0" vertex="1" parent="3XaSXXcbDHOcGcoVshW3-77">
          <mxGeometry y="138" width="520" height="22" as="geometry" />
        </mxCell>
        <mxCell id="3XaSXXcbDHOcGcoVshW3-84" value="+salvarGaleria (String archivo): void&#xa;" style="text;align=left;verticalAlign=top;spacingLeft=4;spacingRight=4;overflow=hidden;rotatable=0;points=[[0,0.5],[1,0.5]];portConstraint=eastwest;fontStyle=0" vertex="1" parent="3XaSXXcbDHOcGcoVshW3-77">
          <mxGeometry y="160" width="520" height="22" as="geometry" />
        </mxCell>
        <mxCell id="3XaSXXcbDHOcGcoVshW3-96" value="pieza" style="swimlane;whiteSpace=wrap;html=1;fillColor=#fff2cc;strokeColor=#d6b656;gradientColor=none;" vertex="1" parent="3XaSXXcbDHOcGcoVshW3-0">
          <mxGeometry x="800" y="600" width="1300" height="2120" as="geometry" />
        </mxCell>
        <mxCell id="3XaSXXcbDHOcGcoVshW3-125" value="&lt;&lt;abstract&gt;&gt;&#xa;Pieza" style="swimlane;fontStyle=0;align=center;verticalAlign=top;childLayout=stackLayout;horizontal=1;startSize=40;horizontalStack=0;resizeParent=1;resizeLast=0;collapsible=1;marginBottom=0;rounded=0;shadow=0;strokeWidth=1;" vertex="1" parent="3XaSXXcbDHOcGcoVshW3-96">
          <mxGeometry x="20" y="130" width="500" height="616" as="geometry">
            <mxRectangle x="550" y="140" width="160" height="26" as="alternateBounds" />
          </mxGeometry>
        </mxCell>
        <mxCell id="3XaSXXcbDHOcGcoVshW3-174" value="#titulo: String" style="text;align=left;verticalAlign=top;spacingLeft=4;spacingRight=4;overflow=hidden;rotatable=0;points=[[0,0.5],[1,0.5]];portConstraint=eastwest;" vertex="1" parent="3XaSXXcbDHOcGcoVshW3-125">
          <mxGeometry y="40" width="500" height="26" as="geometry" />
        </mxCell>
        <mxCell id="3XaSXXcbDHOcGcoVshW3-175" value="#fechaCreacion: Date" style="text;align=left;verticalAlign=top;spacingLeft=4;spacingRight=4;overflow=hidden;rotatable=0;points=[[0,0.5],[1,0.5]];portConstraint=eastwest;rounded=0;shadow=0;html=0;" vertex="1" parent="3XaSXXcbDHOcGcoVshW3-125">
          <mxGeometry y="66" width="500" height="26" as="geometry" />
        </mxCell>
        <mxCell id="3XaSXXcbDHOcGcoVshW3-176" value="#lugarCreacion: String" style="text;align=left;verticalAlign=top;spacingLeft=4;spacingRight=4;overflow=hidden;rotatable=0;points=[[0,0.5],[1,0.5]];portConstraint=eastwest;rounded=0;shadow=0;html=0;" vertex="1" parent="3XaSXXcbDHOcGcoVshW3-125">
          <mxGeometry y="92" width="500" height="26" as="geometry" />
        </mxCell>
        <mxCell id="3XaSXXcbDHOcGcoVshW3-177" value="#autores: List&lt;String&gt;" style="text;align=left;verticalAlign=top;spacingLeft=4;spacingRight=4;overflow=hidden;rotatable=0;points=[[0,0.5],[1,0.5]];portConstraint=eastwest;rounded=0;shadow=0;html=0;" vertex="1" parent="3XaSXXcbDHOcGcoVshW3-125">
          <mxGeometry y="118" width="500" height="26" as="geometry" />
        </mxCell>
        <mxCell id="3XaSXXcbDHOcGcoVshW3-178" value="#modalidadVenta: String" style="text;align=left;verticalAlign=top;spacingLeft=4;spacingRight=4;overflow=hidden;rotatable=0;points=[[0,0.5],[1,0.5]];portConstraint=eastwest;rounded=0;shadow=0;html=0;" vertex="1" parent="3XaSXXcbDHOcGcoVshW3-125">
          <mxGeometry y="144" width="500" height="26" as="geometry" />
        </mxCell>
        <mxCell id="3XaSXXcbDHOcGcoVshW3-179" value="#fechaEntrega: Date" style="text;align=left;verticalAlign=top;spacingLeft=4;spacingRight=4;overflow=hidden;rotatable=0;points=[[0,0.5],[1,0.5]];portConstraint=eastwest;rounded=0;shadow=0;html=0;" vertex="1" parent="3XaSXXcbDHOcGcoVshW3-125">
          <mxGeometry y="170" width="500" height="26" as="geometry" />
        </mxCell>
        <mxCell id="3XaSXXcbDHOcGcoVshW3-180" value="#identificadorUnico: int" style="text;align=left;verticalAlign=top;spacingLeft=4;spacingRight=4;overflow=hidden;rotatable=0;points=[[0,0.5],[1,0.5]];portConstraint=eastwest;rounded=0;shadow=0;html=0;" vertex="1" parent="3XaSXXcbDHOcGcoVshW3-125">
          <mxGeometry y="196" width="500" height="26" as="geometry" />
        </mxCell>
        <mxCell id="3XaSXXcbDHOcGcoVshW3-181" value="#detallesAdicionales: List&lt;String&gt;" style="text;align=left;verticalAlign=top;spacingLeft=4;spacingRight=4;overflow=hidden;rotatable=0;points=[[0,0.5],[1,0.5]];portConstraint=eastwest;rounded=0;shadow=0;html=0;" vertex="1" parent="3XaSXXcbDHOcGcoVshW3-125">
          <mxGeometry y="222" width="500" height="26" as="geometry" />
        </mxCell>
        <mxCell id="3XaSXXcbDHOcGcoVshW3-182" value="#precio: int" style="text;align=left;verticalAlign=top;spacingLeft=4;spacingRight=4;overflow=hidden;rotatable=0;points=[[0,0.5],[1,0.5]];portConstraint=eastwest;rounded=0;shadow=0;html=0;" vertex="1" parent="3XaSXXcbDHOcGcoVshW3-125">
          <mxGeometry y="248" width="500" height="26" as="geometry" />
        </mxCell>
        <mxCell id="3XaSXXcbDHOcGcoVshW3-183" value="+listaID = new List&lt;Integer&gt;()" style="text;align=left;verticalAlign=top;spacingLeft=4;spacingRight=4;overflow=hidden;rotatable=0;points=[[0,0.5],[1,0.5]];portConstraint=eastwest;rounded=0;shadow=0;html=0;fontStyle=4" vertex="1" parent="3XaSXXcbDHOcGcoVshW3-125">
          <mxGeometry y="274" width="500" height="26" as="geometry" />
        </mxCell>
        <mxCell id="3XaSXXcbDHOcGcoVshW3-126" value="" style="line;html=1;strokeWidth=1;align=left;verticalAlign=middle;spacingTop=-1;spacingLeft=3;spacingRight=3;rotatable=0;labelPosition=right;points=[];portConstraint=eastwest;" vertex="1" parent="3XaSXXcbDHOcGcoVshW3-125">
          <mxGeometry y="300" width="500" height="8" as="geometry" />
        </mxCell>
        <mxCell id="3XaSXXcbDHOcGcoVshW3-128" value="+Pieza(String titulo, Date fechaCreacion, String lugarCreacion, List&lt;String&gt; autores, &#xa;String modalidadVenta, Date fechaEntrega, List&lt;String&gt; detallesAdicionales, int precio)&#xa;" style="text;align=left;verticalAlign=top;spacingLeft=4;spacingRight=4;overflow=hidden;rotatable=0;points=[[0,0.5],[1,0.5]];portConstraint=eastwest;fontStyle=0" vertex="1" parent="3XaSXXcbDHOcGcoVshW3-125">
          <mxGeometry y="308" width="500" height="40" as="geometry" />
        </mxCell>
        <mxCell id="3XaSXXcbDHOcGcoVshW3-130" value="+getTitulo (): String&#xa;" style="text;align=left;verticalAlign=top;spacingLeft=4;spacingRight=4;overflow=hidden;rotatable=0;points=[[0,0.5],[1,0.5]];portConstraint=eastwest;fontStyle=0" vertex="1" parent="3XaSXXcbDHOcGcoVshW3-125">
          <mxGeometry y="348" width="500" height="26" as="geometry" />
        </mxCell>
        <mxCell id="3XaSXXcbDHOcGcoVshW3-131" value="+getFechaCreacion (): Date&#xa;" style="text;align=left;verticalAlign=top;spacingLeft=4;spacingRight=4;overflow=hidden;rotatable=0;points=[[0,0.5],[1,0.5]];portConstraint=eastwest;fontStyle=0" vertex="1" parent="3XaSXXcbDHOcGcoVshW3-125">
          <mxGeometry y="374" width="500" height="22" as="geometry" />
        </mxCell>
        <mxCell id="3XaSXXcbDHOcGcoVshW3-132" value="+getLugarCreacion (): String&#xa;" style="text;align=left;verticalAlign=top;spacingLeft=4;spacingRight=4;overflow=hidden;rotatable=0;points=[[0,0.5],[1,0.5]];portConstraint=eastwest;fontStyle=0" vertex="1" parent="3XaSXXcbDHOcGcoVshW3-125">
          <mxGeometry y="396" width="500" height="22" as="geometry" />
        </mxCell>
        <mxCell id="3XaSXXcbDHOcGcoVshW3-133" value="+getAutores(): List&lt;String&gt;&#xa;" style="text;align=left;verticalAlign=top;spacingLeft=4;spacingRight=4;overflow=hidden;rotatable=0;points=[[0,0.5],[1,0.5]];portConstraint=eastwest;fontStyle=0" vertex="1" parent="3XaSXXcbDHOcGcoVshW3-125">
          <mxGeometry y="418" width="500" height="22" as="geometry" />
        </mxCell>
        <mxCell id="3XaSXXcbDHOcGcoVshW3-134" value="+addAutores(): void&#xa;" style="text;align=left;verticalAlign=top;spacingLeft=4;spacingRight=4;overflow=hidden;rotatable=0;points=[[0,0.5],[1,0.5]];portConstraint=eastwest;fontStyle=0" vertex="1" parent="3XaSXXcbDHOcGcoVshW3-125">
          <mxGeometry y="440" width="500" height="22" as="geometry" />
        </mxCell>
        <mxCell id="3XaSXXcbDHOcGcoVshW3-135" value="+getModalidadVenta(): String&#xa;" style="text;align=left;verticalAlign=top;spacingLeft=4;spacingRight=4;overflow=hidden;rotatable=0;points=[[0,0.5],[1,0.5]];portConstraint=eastwest;fontStyle=0" vertex="1" parent="3XaSXXcbDHOcGcoVshW3-125">
          <mxGeometry y="462" width="500" height="22" as="geometry" />
        </mxCell>
        <mxCell id="3XaSXXcbDHOcGcoVshW3-136" value="+setModalidadVenta(String modalidadVenta): void&#xa;" style="text;align=left;verticalAlign=top;spacingLeft=4;spacingRight=4;overflow=hidden;rotatable=0;points=[[0,0.5],[1,0.5]];portConstraint=eastwest;fontStyle=0" vertex="1" parent="3XaSXXcbDHOcGcoVshW3-125">
          <mxGeometry y="484" width="500" height="22" as="geometry" />
        </mxCell>
        <mxCell id="3XaSXXcbDHOcGcoVshW3-137" value="+getFechaEntrega(): Date&#xa;" style="text;align=left;verticalAlign=top;spacingLeft=4;spacingRight=4;overflow=hidden;rotatable=0;points=[[0,0.5],[1,0.5]];portConstraint=eastwest;fontStyle=0" vertex="1" parent="3XaSXXcbDHOcGcoVshW3-125">
          <mxGeometry y="506" width="500" height="22" as="geometry" />
        </mxCell>
        <mxCell id="3XaSXXcbDHOcGcoVshW3-138" value="+setFechaEntrega(Date fechaEntrega): void&#xa;" style="text;align=left;verticalAlign=top;spacingLeft=4;spacingRight=4;overflow=hidden;rotatable=0;points=[[0,0.5],[1,0.5]];portConstraint=eastwest;fontStyle=0" vertex="1" parent="3XaSXXcbDHOcGcoVshW3-125">
          <mxGeometry y="528" width="500" height="22" as="geometry" />
        </mxCell>
        <mxCell id="3XaSXXcbDHOcGcoVshW3-139" value="+getID(): int&#xa;" style="text;align=left;verticalAlign=top;spacingLeft=4;spacingRight=4;overflow=hidden;rotatable=0;points=[[0,0.5],[1,0.5]];portConstraint=eastwest;fontStyle=0" vertex="1" parent="3XaSXXcbDHOcGcoVshW3-125">
          <mxGeometry y="550" width="500" height="22" as="geometry" />
        </mxCell>
        <mxCell id="3XaSXXcbDHOcGcoVshW3-140" value="+getDetallesAdicionales: List&lt;String&gt;&#xa;" style="text;align=left;verticalAlign=top;spacingLeft=4;spacingRight=4;overflow=hidden;rotatable=0;points=[[0,0.5],[1,0.5]];portConstraint=eastwest;fontStyle=0" vertex="1" parent="3XaSXXcbDHOcGcoVshW3-125">
          <mxGeometry y="572" width="500" height="22" as="geometry" />
        </mxCell>
        <mxCell id="3XaSXXcbDHOcGcoVshW3-186" value="+getPrecio(): int&#xa;" style="text;align=left;verticalAlign=top;spacingLeft=4;spacingRight=4;overflow=hidden;rotatable=0;points=[[0,0.5],[1,0.5]];portConstraint=eastwest;fontStyle=0" vertex="1" parent="3XaSXXcbDHOcGcoVshW3-125">
          <mxGeometry y="594" width="500" height="22" as="geometry" />
        </mxCell>
        <mxCell id="3XaSXXcbDHOcGcoVshW3-211" style="edgeStyle=orthogonalEdgeStyle;rounded=0;orthogonalLoop=1;jettySize=auto;html=1;endArrow=block;endFill=0;" edge="1" parent="3XaSXXcbDHOcGcoVshW3-96" source="3XaSXXcbDHOcGcoVshW3-187" target="3XaSXXcbDHOcGcoVshW3-125">
          <mxGeometry relative="1" as="geometry">
            <Array as="points">
              <mxPoint x="560" y="257" />
              <mxPoint x="560" y="257" />
            </Array>
          </mxGeometry>
        </mxCell>
        <mxCell id="3XaSXXcbDHOcGcoVshW3-212" value="extends" style="edgeLabel;html=1;align=center;verticalAlign=middle;resizable=0;points=[];" vertex="1" connectable="0" parent="3XaSXXcbDHOcGcoVshW3-211">
          <mxGeometry x="0.2354" relative="1" as="geometry">
            <mxPoint x="44" y="-9" as="offset" />
          </mxGeometry>
        </mxCell>
        <mxCell id="3XaSXXcbDHOcGcoVshW3-187" value="Escultura" style="swimlane;fontStyle=0;align=center;verticalAlign=top;childLayout=stackLayout;horizontal=1;startSize=26;horizontalStack=0;resizeParent=1;resizeLast=0;collapsible=1;marginBottom=0;rounded=0;shadow=0;strokeWidth=1;" vertex="1" parent="3XaSXXcbDHOcGcoVshW3-96">
          <mxGeometry x="640" y="40" width="640" height="420" as="geometry">
            <mxRectangle x="550" y="140" width="160" height="26" as="alternateBounds" />
          </mxGeometry>
        </mxCell>
        <mxCell id="3XaSXXcbDHOcGcoVshW3-204" value="-alto: double" style="text;align=left;verticalAlign=top;spacingLeft=4;spacingRight=4;overflow=hidden;rotatable=0;points=[[0,0.5],[1,0.5]];portConstraint=eastwest;fontStyle=0" vertex="1" parent="3XaSXXcbDHOcGcoVshW3-187">
          <mxGeometry y="26" width="640" height="26" as="geometry" />
        </mxCell>
        <mxCell id="3XaSXXcbDHOcGcoVshW3-205" value="-ancho: double" style="text;align=left;verticalAlign=top;spacingLeft=4;spacingRight=4;overflow=hidden;rotatable=0;points=[[0,0.5],[1,0.5]];portConstraint=eastwest;rounded=0;shadow=0;html=0;" vertex="1" parent="3XaSXXcbDHOcGcoVshW3-187">
          <mxGeometry y="52" width="640" height="26" as="geometry" />
        </mxCell>
        <mxCell id="3XaSXXcbDHOcGcoVshW3-206" value="-profundidad: double" style="text;align=left;verticalAlign=top;spacingLeft=4;spacingRight=4;overflow=hidden;rotatable=0;points=[[0,0.5],[1,0.5]];portConstraint=eastwest;rounded=0;shadow=0;html=0;" vertex="1" parent="3XaSXXcbDHOcGcoVshW3-187">
          <mxGeometry y="78" width="640" height="26" as="geometry" />
        </mxCell>
        <mxCell id="3XaSXXcbDHOcGcoVshW3-207" value="-materialesConstruccion: List&lt;String&gt;" style="text;align=left;verticalAlign=top;spacingLeft=4;spacingRight=4;overflow=hidden;rotatable=0;points=[[0,0.5],[1,0.5]];portConstraint=eastwest;rounded=0;shadow=0;html=0;" vertex="1" parent="3XaSXXcbDHOcGcoVshW3-187">
          <mxGeometry y="104" width="640" height="26" as="geometry" />
        </mxCell>
        <mxCell id="3XaSXXcbDHOcGcoVshW3-208" value="-peso: double" style="text;align=left;verticalAlign=top;spacingLeft=4;spacingRight=4;overflow=hidden;rotatable=0;points=[[0,0.5],[1,0.5]];portConstraint=eastwest;rounded=0;shadow=0;html=0;" vertex="1" parent="3XaSXXcbDHOcGcoVshW3-187">
          <mxGeometry y="130" width="640" height="26" as="geometry" />
        </mxCell>
        <mxCell id="3XaSXXcbDHOcGcoVshW3-209" value="-necesitaElectricidad: boolean" style="text;align=left;verticalAlign=top;spacingLeft=4;spacingRight=4;overflow=hidden;rotatable=0;points=[[0,0.5],[1,0.5]];portConstraint=eastwest;rounded=0;shadow=0;html=0;" vertex="1" parent="3XaSXXcbDHOcGcoVshW3-187">
          <mxGeometry y="156" width="640" height="26" as="geometry" />
        </mxCell>
        <mxCell id="3XaSXXcbDHOcGcoVshW3-188" value="" style="line;html=1;strokeWidth=1;align=left;verticalAlign=middle;spacingTop=-1;spacingLeft=3;spacingRight=3;rotatable=0;labelPosition=right;points=[];portConstraint=eastwest;" vertex="1" parent="3XaSXXcbDHOcGcoVshW3-187">
          <mxGeometry y="182" width="640" height="8" as="geometry" />
        </mxCell>
        <mxCell id="3XaSXXcbDHOcGcoVshW3-189" value="+Escultura(String titulo, Date fechaCreacion, String lugarCreacion, List&lt;String&gt; autores, String modalidadVenta,&#xa;Date fechaEntrega, List&lt;String&gt; detallesAdicionales, int precio, double alto, double ancho, &#xa;double profundidad, List&lt;String&gt; materialConstruccion, double peso, boolean necesitaElectricidad)" style="text;align=left;verticalAlign=top;spacingLeft=4;spacingRight=4;overflow=hidden;rotatable=0;points=[[0,0.5],[1,0.5]];portConstraint=eastwest;fontStyle=0" vertex="1" parent="3XaSXXcbDHOcGcoVshW3-187">
          <mxGeometry y="190" width="640" height="56" as="geometry" />
        </mxCell>
        <mxCell id="3XaSXXcbDHOcGcoVshW3-190" value="+getAlto(): double&#xa;" style="text;align=left;verticalAlign=top;spacingLeft=4;spacingRight=4;overflow=hidden;rotatable=0;points=[[0,0.5],[1,0.5]];portConstraint=eastwest;fontStyle=0" vertex="1" parent="3XaSXXcbDHOcGcoVshW3-187">
          <mxGeometry y="246" width="640" height="26" as="geometry" />
        </mxCell>
        <mxCell id="3XaSXXcbDHOcGcoVshW3-191" value="+getAncho(): double&#xa;" style="text;align=left;verticalAlign=top;spacingLeft=4;spacingRight=4;overflow=hidden;rotatable=0;points=[[0,0.5],[1,0.5]];portConstraint=eastwest;fontStyle=0" vertex="1" parent="3XaSXXcbDHOcGcoVshW3-187">
          <mxGeometry y="272" width="640" height="26" as="geometry" />
        </mxCell>
        <mxCell id="3XaSXXcbDHOcGcoVshW3-192" value="+getProfundidad(): double&#xa;" style="text;align=left;verticalAlign=top;spacingLeft=4;spacingRight=4;overflow=hidden;rotatable=0;points=[[0,0.5],[1,0.5]];portConstraint=eastwest;fontStyle=0" vertex="1" parent="3XaSXXcbDHOcGcoVshW3-187">
          <mxGeometry y="298" width="640" height="26" as="geometry" />
        </mxCell>
        <mxCell id="3XaSXXcbDHOcGcoVshW3-193" value="+getMaterialConstruccion(): List&lt;String&gt;&#xa;" style="text;align=left;verticalAlign=top;spacingLeft=4;spacingRight=4;overflow=hidden;rotatable=0;points=[[0,0.5],[1,0.5]];portConstraint=eastwest;fontStyle=0" vertex="1" parent="3XaSXXcbDHOcGcoVshW3-187">
          <mxGeometry y="324" width="640" height="22" as="geometry" />
        </mxCell>
        <mxCell id="3XaSXXcbDHOcGcoVshW3-194" value="+getPeso(): double&#xa;" style="text;align=left;verticalAlign=top;spacingLeft=4;spacingRight=4;overflow=hidden;rotatable=0;points=[[0,0.5],[1,0.5]];portConstraint=eastwest;fontStyle=0" vertex="1" parent="3XaSXXcbDHOcGcoVshW3-187">
          <mxGeometry y="346" width="640" height="22" as="geometry" />
        </mxCell>
        <mxCell id="3XaSXXcbDHOcGcoVshW3-195" value="+isNecesitaElectricidad(): boolean&#xa;" style="text;align=left;verticalAlign=top;spacingLeft=4;spacingRight=4;overflow=hidden;rotatable=0;points=[[0,0.5],[1,0.5]];portConstraint=eastwest;fontStyle=0" vertex="1" parent="3XaSXXcbDHOcGcoVshW3-187">
          <mxGeometry y="368" width="640" height="22" as="geometry" />
        </mxCell>
        <mxCell id="3XaSXXcbDHOcGcoVshW3-196" value="+setNecesitaElectricidad: void&#xa;" style="text;align=left;verticalAlign=top;spacingLeft=4;spacingRight=4;overflow=hidden;rotatable=0;points=[[0,0.5],[1,0.5]];portConstraint=eastwest;fontStyle=0" vertex="1" parent="3XaSXXcbDHOcGcoVshW3-187">
          <mxGeometry y="390" width="640" height="22" as="geometry" />
        </mxCell>
        <mxCell id="3XaSXXcbDHOcGcoVshW3-302" style="edgeStyle=orthogonalEdgeStyle;rounded=0;orthogonalLoop=1;jettySize=auto;html=1;endArrow=block;endFill=0;" edge="1" parent="3XaSXXcbDHOcGcoVshW3-96" source="3XaSXXcbDHOcGcoVshW3-213" target="3XaSXXcbDHOcGcoVshW3-125">
          <mxGeometry relative="1" as="geometry">
            <Array as="points">
              <mxPoint x="620" y="740" />
              <mxPoint x="620" y="280" />
            </Array>
          </mxGeometry>
        </mxCell>
        <mxCell id="3XaSXXcbDHOcGcoVshW3-314" value="extends" style="edgeLabel;html=1;align=center;verticalAlign=middle;resizable=0;points=[];" vertex="1" connectable="0" parent="3XaSXXcbDHOcGcoVshW3-302">
          <mxGeometry x="0.7626" y="-1" relative="1" as="geometry">
            <mxPoint y="-9" as="offset" />
          </mxGeometry>
        </mxCell>
        <mxCell id="3XaSXXcbDHOcGcoVshW3-213" value="Fotografia" style="swimlane;fontStyle=0;align=center;verticalAlign=top;childLayout=stackLayout;horizontal=1;startSize=26;horizontalStack=0;resizeParent=1;resizeLast=0;collapsible=1;marginBottom=0;rounded=0;shadow=0;strokeWidth=1;" vertex="1" parent="3XaSXXcbDHOcGcoVshW3-96">
          <mxGeometry x="640" y="500" width="640" height="460" as="geometry">
            <mxRectangle x="550" y="140" width="160" height="26" as="alternateBounds" />
          </mxGeometry>
        </mxCell>
        <mxCell id="3XaSXXcbDHOcGcoVshW3-215" value="-alto: double" style="text;align=left;verticalAlign=top;spacingLeft=4;spacingRight=4;overflow=hidden;rotatable=0;points=[[0,0.5],[1,0.5]];portConstraint=eastwest;fontStyle=0" vertex="1" parent="3XaSXXcbDHOcGcoVshW3-213">
          <mxGeometry y="26" width="640" height="26" as="geometry" />
        </mxCell>
        <mxCell id="3XaSXXcbDHOcGcoVshW3-282" value="-resolucionFoto: String" style="text;align=left;verticalAlign=top;spacingLeft=4;spacingRight=4;overflow=hidden;rotatable=0;points=[[0,0.5],[1,0.5]];portConstraint=eastwest;rounded=0;shadow=0;html=0;" vertex="1" parent="3XaSXXcbDHOcGcoVshW3-213">
          <mxGeometry y="52" width="640" height="26" as="geometry" />
        </mxCell>
        <mxCell id="3XaSXXcbDHOcGcoVshW3-283" value="-plano: String" style="text;align=left;verticalAlign=top;spacingLeft=4;spacingRight=4;overflow=hidden;rotatable=0;points=[[0,0.5],[1,0.5]];portConstraint=eastwest;rounded=0;shadow=0;html=0;" vertex="1" parent="3XaSXXcbDHOcGcoVshW3-213">
          <mxGeometry y="78" width="640" height="26" as="geometry" />
        </mxCell>
        <mxCell id="3XaSXXcbDHOcGcoVshW3-284" value="-relacionAspecto: String" style="text;align=left;verticalAlign=top;spacingLeft=4;spacingRight=4;overflow=hidden;rotatable=0;points=[[0,0.5],[1,0.5]];portConstraint=eastwest;rounded=0;shadow=0;html=0;" vertex="1" parent="3XaSXXcbDHOcGcoVshW3-213">
          <mxGeometry y="104" width="640" height="26" as="geometry" />
        </mxCell>
        <mxCell id="3XaSXXcbDHOcGcoVshW3-285" value="-formato: String" style="text;align=left;verticalAlign=top;spacingLeft=4;spacingRight=4;overflow=hidden;rotatable=0;points=[[0,0.5],[1,0.5]];portConstraint=eastwest;rounded=0;shadow=0;html=0;" vertex="1" parent="3XaSXXcbDHOcGcoVshW3-213">
          <mxGeometry y="130" width="640" height="26" as="geometry" />
        </mxCell>
        <mxCell id="3XaSXXcbDHOcGcoVshW3-286" value="-generoFotografico: String" style="text;align=left;verticalAlign=top;spacingLeft=4;spacingRight=4;overflow=hidden;rotatable=0;points=[[0,0.5],[1,0.5]];portConstraint=eastwest;rounded=0;shadow=0;html=0;" vertex="1" parent="3XaSXXcbDHOcGcoVshW3-213">
          <mxGeometry y="156" width="640" height="26" as="geometry" />
        </mxCell>
        <mxCell id="3XaSXXcbDHOcGcoVshW3-287" value="-tecnica: String" style="text;align=left;verticalAlign=top;spacingLeft=4;spacingRight=4;overflow=hidden;rotatable=0;points=[[0,0.5],[1,0.5]];portConstraint=eastwest;rounded=0;shadow=0;html=0;" vertex="1" parent="3XaSXXcbDHOcGcoVshW3-213">
          <mxGeometry y="182" width="640" height="26" as="geometry" />
        </mxCell>
        <mxCell id="3XaSXXcbDHOcGcoVshW3-221" value="" style="line;html=1;strokeWidth=1;align=left;verticalAlign=middle;spacingTop=-1;spacingLeft=3;spacingRight=3;rotatable=0;labelPosition=right;points=[];portConstraint=eastwest;" vertex="1" parent="3XaSXXcbDHOcGcoVshW3-213">
          <mxGeometry y="208" width="640" height="8" as="geometry" />
        </mxCell>
        <mxCell id="3XaSXXcbDHOcGcoVshW3-222" value="+Fotografia(String titulo, Date fechaCreacion, String lugarCreacion, List&lt;String&gt; autores, &#xa;String modalidadVenta, Date fechaEntrega, List&lt;String&gt; detallesAdicionales, int precio, String resolucionFoto, &#xa;String plano, String relacionAspecto, String formato, String generoFotografico, String tecnica) " style="text;align=left;verticalAlign=top;spacingLeft=4;spacingRight=4;overflow=hidden;rotatable=0;points=[[0,0.5],[1,0.5]];portConstraint=eastwest;fontStyle=0" vertex="1" parent="3XaSXXcbDHOcGcoVshW3-213">
          <mxGeometry y="216" width="640" height="56" as="geometry" />
        </mxCell>
        <mxCell id="3XaSXXcbDHOcGcoVshW3-223" value="+getResolucionFoto(): String&#xa;" style="text;align=left;verticalAlign=top;spacingLeft=4;spacingRight=4;overflow=hidden;rotatable=0;points=[[0,0.5],[1,0.5]];portConstraint=eastwest;fontStyle=0" vertex="1" parent="3XaSXXcbDHOcGcoVshW3-213">
          <mxGeometry y="272" width="640" height="26" as="geometry" />
        </mxCell>
        <mxCell id="3XaSXXcbDHOcGcoVshW3-224" value="+setResolucionFoto(String resolucionFoto): void&#xa;" style="text;align=left;verticalAlign=top;spacingLeft=4;spacingRight=4;overflow=hidden;rotatable=0;points=[[0,0.5],[1,0.5]];portConstraint=eastwest;fontStyle=0" vertex="1" parent="3XaSXXcbDHOcGcoVshW3-213">
          <mxGeometry y="298" width="640" height="26" as="geometry" />
        </mxCell>
        <mxCell id="3XaSXXcbDHOcGcoVshW3-225" value="+getPlano(): String&#xa;" style="text;align=left;verticalAlign=top;spacingLeft=4;spacingRight=4;overflow=hidden;rotatable=0;points=[[0,0.5],[1,0.5]];portConstraint=eastwest;fontStyle=0" vertex="1" parent="3XaSXXcbDHOcGcoVshW3-213">
          <mxGeometry y="324" width="640" height="26" as="geometry" />
        </mxCell>
        <mxCell id="3XaSXXcbDHOcGcoVshW3-226" value="+getRelacionAspecto(): String&#xa;" style="text;align=left;verticalAlign=top;spacingLeft=4;spacingRight=4;overflow=hidden;rotatable=0;points=[[0,0.5],[1,0.5]];portConstraint=eastwest;fontStyle=0" vertex="1" parent="3XaSXXcbDHOcGcoVshW3-213">
          <mxGeometry y="350" width="640" height="22" as="geometry" />
        </mxCell>
        <mxCell id="3XaSXXcbDHOcGcoVshW3-227" value="+setRelacionAspecto(String relacionAspecto): void&#xa;" style="text;align=left;verticalAlign=top;spacingLeft=4;spacingRight=4;overflow=hidden;rotatable=0;points=[[0,0.5],[1,0.5]];portConstraint=eastwest;fontStyle=0" vertex="1" parent="3XaSXXcbDHOcGcoVshW3-213">
          <mxGeometry y="372" width="640" height="22" as="geometry" />
        </mxCell>
        <mxCell id="3XaSXXcbDHOcGcoVshW3-228" value="+getFormato(): String&#xa;" style="text;align=left;verticalAlign=top;spacingLeft=4;spacingRight=4;overflow=hidden;rotatable=0;points=[[0,0.5],[1,0.5]];portConstraint=eastwest;fontStyle=0" vertex="1" parent="3XaSXXcbDHOcGcoVshW3-213">
          <mxGeometry y="394" width="640" height="22" as="geometry" />
        </mxCell>
        <mxCell id="3XaSXXcbDHOcGcoVshW3-289" value="+getGeneroFotografico(): String&#xa;" style="text;align=left;verticalAlign=top;spacingLeft=4;spacingRight=4;overflow=hidden;rotatable=0;points=[[0,0.5],[1,0.5]];portConstraint=eastwest;fontStyle=0" vertex="1" parent="3XaSXXcbDHOcGcoVshW3-213">
          <mxGeometry y="416" width="640" height="22" as="geometry" />
        </mxCell>
        <mxCell id="3XaSXXcbDHOcGcoVshW3-229" value="+getTecnica(): String&#xa;" style="text;align=left;verticalAlign=top;spacingLeft=4;spacingRight=4;overflow=hidden;rotatable=0;points=[[0,0.5],[1,0.5]];portConstraint=eastwest;fontStyle=0" vertex="1" parent="3XaSXXcbDHOcGcoVshW3-213">
          <mxGeometry y="438" width="640" height="22" as="geometry" />
        </mxCell>
        <mxCell id="3XaSXXcbDHOcGcoVshW3-303" style="edgeStyle=orthogonalEdgeStyle;rounded=0;orthogonalLoop=1;jettySize=auto;html=1;endArrow=block;endFill=0;" edge="1" parent="3XaSXXcbDHOcGcoVshW3-96" source="3XaSXXcbDHOcGcoVshW3-230" target="3XaSXXcbDHOcGcoVshW3-125">
          <mxGeometry relative="1" as="geometry">
            <mxPoint x="590" y="700" as="targetPoint" />
            <Array as="points">
              <mxPoint x="600" y="1170" />
              <mxPoint x="600" y="320" />
            </Array>
          </mxGeometry>
        </mxCell>
        <mxCell id="3XaSXXcbDHOcGcoVshW3-315" value="extends" style="edgeLabel;html=1;align=center;verticalAlign=middle;resizable=0;points=[];" vertex="1" connectable="0" parent="3XaSXXcbDHOcGcoVshW3-303">
          <mxGeometry x="0.9052" y="-2" relative="1" as="geometry">
            <mxPoint x="4" y="-6" as="offset" />
          </mxGeometry>
        </mxCell>
        <mxCell id="3XaSXXcbDHOcGcoVshW3-230" value="Impresion" style="swimlane;fontStyle=0;align=center;verticalAlign=top;childLayout=stackLayout;horizontal=1;startSize=26;horizontalStack=0;resizeParent=1;resizeLast=0;collapsible=1;marginBottom=0;rounded=0;shadow=0;strokeWidth=1;" vertex="1" parent="3XaSXXcbDHOcGcoVshW3-96">
          <mxGeometry x="640" y="1000" width="640" height="340" as="geometry">
            <mxRectangle x="550" y="140" width="160" height="26" as="alternateBounds" />
          </mxGeometry>
        </mxCell>
        <mxCell id="3XaSXXcbDHOcGcoVshW3-232" value="-alto: double" style="text;align=left;verticalAlign=top;spacingLeft=4;spacingRight=4;overflow=hidden;rotatable=0;points=[[0,0.5],[1,0.5]];portConstraint=eastwest;fontStyle=0" vertex="1" parent="3XaSXXcbDHOcGcoVshW3-230">
          <mxGeometry y="26" width="640" height="26" as="geometry" />
        </mxCell>
        <mxCell id="3XaSXXcbDHOcGcoVshW3-233" value="-ancho: double" style="text;align=left;verticalAlign=top;spacingLeft=4;spacingRight=4;overflow=hidden;rotatable=0;points=[[0,0.5],[1,0.5]];portConstraint=eastwest;rounded=0;shadow=0;html=0;" vertex="1" parent="3XaSXXcbDHOcGcoVshW3-230">
          <mxGeometry y="52" width="640" height="26" as="geometry" />
        </mxCell>
        <mxCell id="3XaSXXcbDHOcGcoVshW3-293" value="-tipoPapel: String" style="text;align=left;verticalAlign=top;spacingLeft=4;spacingRight=4;overflow=hidden;rotatable=0;points=[[0,0.5],[1,0.5]];portConstraint=eastwest;rounded=0;shadow=0;html=0;" vertex="1" parent="3XaSXXcbDHOcGcoVshW3-230">
          <mxGeometry y="78" width="640" height="26" as="geometry" />
        </mxCell>
        <mxCell id="3XaSXXcbDHOcGcoVshW3-294" value="-formatoImpresion: String" style="text;align=left;verticalAlign=top;spacingLeft=4;spacingRight=4;overflow=hidden;rotatable=0;points=[[0,0.5],[1,0.5]];portConstraint=eastwest;rounded=0;shadow=0;html=0;" vertex="1" parent="3XaSXXcbDHOcGcoVshW3-230">
          <mxGeometry y="104" width="640" height="26" as="geometry" />
        </mxCell>
        <mxCell id="3XaSXXcbDHOcGcoVshW3-238" value="" style="line;html=1;strokeWidth=1;align=left;verticalAlign=middle;spacingTop=-1;spacingLeft=3;spacingRight=3;rotatable=0;labelPosition=right;points=[];portConstraint=eastwest;" vertex="1" parent="3XaSXXcbDHOcGcoVshW3-230">
          <mxGeometry y="130" width="640" height="8" as="geometry" />
        </mxCell>
        <mxCell id="3XaSXXcbDHOcGcoVshW3-239" value="+Impresion(String titulo, Date fechaCreacion, String lugarCreacion, List&lt;String&gt; autores, &#xa;String modalidadVenta, Date fechaEntrega, List&lt;String&gt; detallesAdicionales, int precio, double alto, &#xa;double ancho, String tipoPapel, String formatoImpresion) " style="text;align=left;verticalAlign=top;spacingLeft=4;spacingRight=4;overflow=hidden;rotatable=0;points=[[0,0.5],[1,0.5]];portConstraint=eastwest;fontStyle=0" vertex="1" parent="3XaSXXcbDHOcGcoVshW3-230">
          <mxGeometry y="138" width="640" height="52" as="geometry" />
        </mxCell>
        <mxCell id="3XaSXXcbDHOcGcoVshW3-240" value="+getTipoPapel(): String&#xa;" style="text;align=left;verticalAlign=top;spacingLeft=4;spacingRight=4;overflow=hidden;rotatable=0;points=[[0,0.5],[1,0.5]];portConstraint=eastwest;fontStyle=0" vertex="1" parent="3XaSXXcbDHOcGcoVshW3-230">
          <mxGeometry y="190" width="640" height="26" as="geometry" />
        </mxCell>
        <mxCell id="3XaSXXcbDHOcGcoVshW3-241" value="+setTipoPapel(String tipoPapel): void&#xa;" style="text;align=left;verticalAlign=top;spacingLeft=4;spacingRight=4;overflow=hidden;rotatable=0;points=[[0,0.5],[1,0.5]];portConstraint=eastwest;fontStyle=0" vertex="1" parent="3XaSXXcbDHOcGcoVshW3-230">
          <mxGeometry y="216" width="640" height="26" as="geometry" />
        </mxCell>
        <mxCell id="3XaSXXcbDHOcGcoVshW3-242" value="+getFormatoImpresion(): String&#xa;" style="text;align=left;verticalAlign=top;spacingLeft=4;spacingRight=4;overflow=hidden;rotatable=0;points=[[0,0.5],[1,0.5]];portConstraint=eastwest;fontStyle=0" vertex="1" parent="3XaSXXcbDHOcGcoVshW3-230">
          <mxGeometry y="242" width="640" height="26" as="geometry" />
        </mxCell>
        <mxCell id="3XaSXXcbDHOcGcoVshW3-243" value="+setFormatoImpresion(String formatoImpresion): void&#xa;" style="text;align=left;verticalAlign=top;spacingLeft=4;spacingRight=4;overflow=hidden;rotatable=0;points=[[0,0.5],[1,0.5]];portConstraint=eastwest;fontStyle=0" vertex="1" parent="3XaSXXcbDHOcGcoVshW3-230">
          <mxGeometry y="268" width="640" height="22" as="geometry" />
        </mxCell>
        <mxCell id="3XaSXXcbDHOcGcoVshW3-244" value="+getAlto(): double&#xa;" style="text;align=left;verticalAlign=top;spacingLeft=4;spacingRight=4;overflow=hidden;rotatable=0;points=[[0,0.5],[1,0.5]];portConstraint=eastwest;fontStyle=0" vertex="1" parent="3XaSXXcbDHOcGcoVshW3-230">
          <mxGeometry y="290" width="640" height="22" as="geometry" />
        </mxCell>
        <mxCell id="3XaSXXcbDHOcGcoVshW3-245" value="+ getAncho(): double&#xa;" style="text;align=left;verticalAlign=top;spacingLeft=4;spacingRight=4;overflow=hidden;rotatable=0;points=[[0,0.5],[1,0.5]];portConstraint=eastwest;fontStyle=0" vertex="1" parent="3XaSXXcbDHOcGcoVshW3-230">
          <mxGeometry y="312" width="640" height="22" as="geometry" />
        </mxCell>
        <mxCell id="3XaSXXcbDHOcGcoVshW3-304" style="edgeStyle=orthogonalEdgeStyle;rounded=0;orthogonalLoop=1;jettySize=auto;html=1;endArrow=block;endFill=0;" edge="1" parent="3XaSXXcbDHOcGcoVshW3-96" source="3XaSXXcbDHOcGcoVshW3-247" target="3XaSXXcbDHOcGcoVshW3-125">
          <mxGeometry relative="1" as="geometry">
            <mxPoint x="420" y="780" as="targetPoint" />
            <Array as="points">
              <mxPoint x="390" y="1525" />
            </Array>
          </mxGeometry>
        </mxCell>
        <mxCell id="3XaSXXcbDHOcGcoVshW3-316" value="extends" style="edgeLabel;html=1;align=center;verticalAlign=middle;resizable=0;points=[];" vertex="1" connectable="0" parent="3XaSXXcbDHOcGcoVshW3-304">
          <mxGeometry x="-0.9073" y="-2" relative="1" as="geometry">
            <mxPoint x="27" y="-9" as="offset" />
          </mxGeometry>
        </mxCell>
        <mxCell id="3XaSXXcbDHOcGcoVshW3-247" value="Pintura" style="swimlane;fontStyle=0;align=center;verticalAlign=top;childLayout=stackLayout;horizontal=1;startSize=26;horizontalStack=0;resizeParent=1;resizeLast=0;collapsible=1;marginBottom=0;rounded=0;shadow=0;strokeWidth=1;" vertex="1" parent="3XaSXXcbDHOcGcoVshW3-96">
          <mxGeometry x="640" y="1380" width="640" height="290" as="geometry">
            <mxRectangle x="550" y="140" width="160" height="26" as="alternateBounds" />
          </mxGeometry>
        </mxCell>
        <mxCell id="3XaSXXcbDHOcGcoVshW3-297" value="-color: List&lt;String&gt;" style="text;align=left;verticalAlign=top;spacingLeft=4;spacingRight=4;overflow=hidden;rotatable=0;points=[[0,0.5],[1,0.5]];portConstraint=eastwest;fontStyle=0" vertex="1" parent="3XaSXXcbDHOcGcoVshW3-247">
          <mxGeometry y="26" width="640" height="26" as="geometry" />
        </mxCell>
        <mxCell id="3XaSXXcbDHOcGcoVshW3-298" value="-tecnica: String" style="text;align=left;verticalAlign=top;spacingLeft=4;spacingRight=4;overflow=hidden;rotatable=0;points=[[0,0.5],[1,0.5]];portConstraint=eastwest;rounded=0;shadow=0;html=0;" vertex="1" parent="3XaSXXcbDHOcGcoVshW3-247">
          <mxGeometry y="52" width="640" height="26" as="geometry" />
        </mxCell>
        <mxCell id="3XaSXXcbDHOcGcoVshW3-299" value="-estilo: String" style="text;align=left;verticalAlign=top;spacingLeft=4;spacingRight=4;overflow=hidden;rotatable=0;points=[[0,0.5],[1,0.5]];portConstraint=eastwest;rounded=0;shadow=0;html=0;" vertex="1" parent="3XaSXXcbDHOcGcoVshW3-247">
          <mxGeometry y="78" width="640" height="26" as="geometry" />
        </mxCell>
        <mxCell id="3XaSXXcbDHOcGcoVshW3-300" value="-superficie: String" style="text;align=left;verticalAlign=top;spacingLeft=4;spacingRight=4;overflow=hidden;rotatable=0;points=[[0,0.5],[1,0.5]];portConstraint=eastwest;rounded=0;shadow=0;html=0;" vertex="1" parent="3XaSXXcbDHOcGcoVshW3-247">
          <mxGeometry y="104" width="640" height="26" as="geometry" />
        </mxCell>
        <mxCell id="3XaSXXcbDHOcGcoVshW3-255" value="" style="line;html=1;strokeWidth=1;align=left;verticalAlign=middle;spacingTop=-1;spacingLeft=3;spacingRight=3;rotatable=0;labelPosition=right;points=[];portConstraint=eastwest;" vertex="1" parent="3XaSXXcbDHOcGcoVshW3-247">
          <mxGeometry y="130" width="640" height="8" as="geometry" />
        </mxCell>
        <mxCell id="3XaSXXcbDHOcGcoVshW3-256" value="+Pintura(String titulo, Date fechaCreacion, String lugarCreacion, List&lt;String&gt; autores, &#xa;String modalidadVenta, Date fechaEntrega, List&lt;String&gt; detallesAdicionales, int precio, &#xa;List&lt;String&gt; colores, String tecnica, String estilo, String superficie) " style="text;align=left;verticalAlign=top;spacingLeft=4;spacingRight=4;overflow=hidden;rotatable=0;points=[[0,0.5],[1,0.5]];portConstraint=eastwest;fontStyle=0" vertex="1" parent="3XaSXXcbDHOcGcoVshW3-247">
          <mxGeometry y="138" width="640" height="48" as="geometry" />
        </mxCell>
        <mxCell id="3XaSXXcbDHOcGcoVshW3-257" value="+getColores(): List&lt;String&gt;&#xa;" style="text;align=left;verticalAlign=top;spacingLeft=4;spacingRight=4;overflow=hidden;rotatable=0;points=[[0,0.5],[1,0.5]];portConstraint=eastwest;fontStyle=0" vertex="1" parent="3XaSXXcbDHOcGcoVshW3-247">
          <mxGeometry y="186" width="640" height="26" as="geometry" />
        </mxCell>
        <mxCell id="3XaSXXcbDHOcGcoVshW3-258" value="+getTecnica(): String&#xa;" style="text;align=left;verticalAlign=top;spacingLeft=4;spacingRight=4;overflow=hidden;rotatable=0;points=[[0,0.5],[1,0.5]];portConstraint=eastwest;fontStyle=0" vertex="1" parent="3XaSXXcbDHOcGcoVshW3-247">
          <mxGeometry y="212" width="640" height="26" as="geometry" />
        </mxCell>
        <mxCell id="3XaSXXcbDHOcGcoVshW3-259" value="+getEstilo(): String&#xa;" style="text;align=left;verticalAlign=top;spacingLeft=4;spacingRight=4;overflow=hidden;rotatable=0;points=[[0,0.5],[1,0.5]];portConstraint=eastwest;fontStyle=0" vertex="1" parent="3XaSXXcbDHOcGcoVshW3-247">
          <mxGeometry y="238" width="640" height="26" as="geometry" />
        </mxCell>
        <mxCell id="3XaSXXcbDHOcGcoVshW3-260" value="+getSuperficie(): String&#xa;" style="text;align=left;verticalAlign=top;spacingLeft=4;spacingRight=4;overflow=hidden;rotatable=0;points=[[0,0.5],[1,0.5]];portConstraint=eastwest;fontStyle=0" vertex="1" parent="3XaSXXcbDHOcGcoVshW3-247">
          <mxGeometry y="264" width="640" height="22" as="geometry" />
        </mxCell>
        <mxCell id="3XaSXXcbDHOcGcoVshW3-312" style="edgeStyle=orthogonalEdgeStyle;rounded=0;orthogonalLoop=1;jettySize=auto;html=1;endArrow=block;endFill=0;" edge="1" parent="3XaSXXcbDHOcGcoVshW3-96" source="3XaSXXcbDHOcGcoVshW3-264" target="3XaSXXcbDHOcGcoVshW3-125">
          <mxGeometry relative="1" as="geometry">
            <mxPoint x="300" y="940" as="targetPoint" />
            <Array as="points">
              <mxPoint x="160" y="1900" />
            </Array>
          </mxGeometry>
        </mxCell>
        <mxCell id="3XaSXXcbDHOcGcoVshW3-313" value="extends" style="edgeLabel;html=1;align=center;verticalAlign=middle;resizable=0;points=[];" vertex="1" connectable="0" parent="3XaSXXcbDHOcGcoVshW3-312">
          <mxGeometry x="-0.8809" y="2" relative="1" as="geometry">
            <mxPoint x="57" y="-12" as="offset" />
          </mxGeometry>
        </mxCell>
        <mxCell id="3XaSXXcbDHOcGcoVshW3-264" value="Video" style="swimlane;fontStyle=0;align=center;verticalAlign=top;childLayout=stackLayout;horizontal=1;startSize=26;horizontalStack=0;resizeParent=1;resizeLast=0;collapsible=1;marginBottom=0;rounded=0;shadow=0;strokeWidth=1;" vertex="1" parent="3XaSXXcbDHOcGcoVshW3-96">
          <mxGeometry x="640" y="1710" width="640" height="390" as="geometry">
            <mxRectangle x="550" y="140" width="160" height="26" as="alternateBounds" />
          </mxGeometry>
        </mxCell>
        <mxCell id="3XaSXXcbDHOcGcoVshW3-306" value="-duracion: int" style="text;align=left;verticalAlign=top;spacingLeft=4;spacingRight=4;overflow=hidden;rotatable=0;points=[[0,0.5],[1,0.5]];portConstraint=eastwest;fontStyle=0" vertex="1" parent="3XaSXXcbDHOcGcoVshW3-264">
          <mxGeometry y="26" width="640" height="26" as="geometry" />
        </mxCell>
        <mxCell id="3XaSXXcbDHOcGcoVshW3-307" value="-resolucionVideo: String" style="text;align=left;verticalAlign=top;spacingLeft=4;spacingRight=4;overflow=hidden;rotatable=0;points=[[0,0.5],[1,0.5]];portConstraint=eastwest;rounded=0;shadow=0;html=0;" vertex="1" parent="3XaSXXcbDHOcGcoVshW3-264">
          <mxGeometry y="52" width="640" height="26" as="geometry" />
        </mxCell>
        <mxCell id="3XaSXXcbDHOcGcoVshW3-308" value="-fotogramasPorSegundo: int" style="text;align=left;verticalAlign=top;spacingLeft=4;spacingRight=4;overflow=hidden;rotatable=0;points=[[0,0.5],[1,0.5]];portConstraint=eastwest;rounded=0;shadow=0;html=0;" vertex="1" parent="3XaSXXcbDHOcGcoVshW3-264">
          <mxGeometry y="78" width="640" height="26" as="geometry" />
        </mxCell>
        <mxCell id="3XaSXXcbDHOcGcoVshW3-309" value="-relacionAspecto: String" style="text;align=left;verticalAlign=top;spacingLeft=4;spacingRight=4;overflow=hidden;rotatable=0;points=[[0,0.5],[1,0.5]];portConstraint=eastwest;rounded=0;shadow=0;html=0;" vertex="1" parent="3XaSXXcbDHOcGcoVshW3-264">
          <mxGeometry y="104" width="640" height="26" as="geometry" />
        </mxCell>
        <mxCell id="3XaSXXcbDHOcGcoVshW3-310" value="-formato: String" style="text;align=left;verticalAlign=top;spacingLeft=4;spacingRight=4;overflow=hidden;rotatable=0;points=[[0,0.5],[1,0.5]];portConstraint=eastwest;rounded=0;shadow=0;html=0;" vertex="1" parent="3XaSXXcbDHOcGcoVshW3-264">
          <mxGeometry y="130" width="640" height="26" as="geometry" />
        </mxCell>
        <mxCell id="3XaSXXcbDHOcGcoVshW3-272" value="" style="line;html=1;strokeWidth=1;align=left;verticalAlign=middle;spacingTop=-1;spacingLeft=3;spacingRight=3;rotatable=0;labelPosition=right;points=[];portConstraint=eastwest;" vertex="1" parent="3XaSXXcbDHOcGcoVshW3-264">
          <mxGeometry y="156" width="640" height="8" as="geometry" />
        </mxCell>
        <mxCell id="3XaSXXcbDHOcGcoVshW3-273" value="+Video(String titulo, Date fechaCreacion, String lugarCreacion, List&lt;String&gt; autores, String modalidadVenta, &#xa;Date fechaEntrega, List&lt;String&gt; detallesAdicionales, int precio, int duracion, String resolucionVideo, &#xa;int framesPerSecond, String relacionAspecto, String formato) &#xa;" style="text;align=left;verticalAlign=top;spacingLeft=4;spacingRight=4;overflow=hidden;rotatable=0;points=[[0,0.5],[1,0.5]];portConstraint=eastwest;fontStyle=0" vertex="1" parent="3XaSXXcbDHOcGcoVshW3-264">
          <mxGeometry y="164" width="640" height="56" as="geometry" />
        </mxCell>
        <mxCell id="3XaSXXcbDHOcGcoVshW3-274" value="+getResolucionVideo(): String&#xa;" style="text;align=left;verticalAlign=top;spacingLeft=4;spacingRight=4;overflow=hidden;rotatable=0;points=[[0,0.5],[1,0.5]];portConstraint=eastwest;fontStyle=0" vertex="1" parent="3XaSXXcbDHOcGcoVshW3-264">
          <mxGeometry y="220" width="640" height="26" as="geometry" />
        </mxCell>
        <mxCell id="3XaSXXcbDHOcGcoVshW3-275" value="+setResolucionVideo(String resolucionVideo): void&#xa;" style="text;align=left;verticalAlign=top;spacingLeft=4;spacingRight=4;overflow=hidden;rotatable=0;points=[[0,0.5],[1,0.5]];portConstraint=eastwest;fontStyle=0" vertex="1" parent="3XaSXXcbDHOcGcoVshW3-264">
          <mxGeometry y="246" width="640" height="26" as="geometry" />
        </mxCell>
        <mxCell id="3XaSXXcbDHOcGcoVshW3-276" value="+getRelacionAspecto(): String&#xa;" style="text;align=left;verticalAlign=top;spacingLeft=4;spacingRight=4;overflow=hidden;rotatable=0;points=[[0,0.5],[1,0.5]];portConstraint=eastwest;fontStyle=0" vertex="1" parent="3XaSXXcbDHOcGcoVshW3-264">
          <mxGeometry y="272" width="640" height="26" as="geometry" />
        </mxCell>
        <mxCell id="3XaSXXcbDHOcGcoVshW3-277" value="+setRelacionAspecto(String relacionAspecto): void&#xa;" style="text;align=left;verticalAlign=top;spacingLeft=4;spacingRight=4;overflow=hidden;rotatable=0;points=[[0,0.5],[1,0.5]];portConstraint=eastwest;fontStyle=0" vertex="1" parent="3XaSXXcbDHOcGcoVshW3-264">
          <mxGeometry y="298" width="640" height="22" as="geometry" />
        </mxCell>
        <mxCell id="3XaSXXcbDHOcGcoVshW3-278" value="+getDuracion(): int&#xa;" style="text;align=left;verticalAlign=top;spacingLeft=4;spacingRight=4;overflow=hidden;rotatable=0;points=[[0,0.5],[1,0.5]];portConstraint=eastwest;fontStyle=0" vertex="1" parent="3XaSXXcbDHOcGcoVshW3-264">
          <mxGeometry y="320" width="640" height="22" as="geometry" />
        </mxCell>
        <mxCell id="3XaSXXcbDHOcGcoVshW3-279" value="+getFramesPerSecond(): int&#xa;" style="text;align=left;verticalAlign=top;spacingLeft=4;spacingRight=4;overflow=hidden;rotatable=0;points=[[0,0.5],[1,0.5]];portConstraint=eastwest;fontStyle=0" vertex="1" parent="3XaSXXcbDHOcGcoVshW3-264">
          <mxGeometry y="342" width="640" height="22" as="geometry" />
        </mxCell>
        <mxCell id="3XaSXXcbDHOcGcoVshW3-280" value="+getFormato(): String&#xa;" style="text;align=left;verticalAlign=top;spacingLeft=4;spacingRight=4;overflow=hidden;rotatable=0;points=[[0,0.5],[1,0.5]];portConstraint=eastwest;fontStyle=0" vertex="1" parent="3XaSXXcbDHOcGcoVshW3-264">
          <mxGeometry y="364" width="640" height="22" as="geometry" />
        </mxCell>
        <mxCell id="3XaSXXcbDHOcGcoVshW3-145" style="edgeStyle=orthogonalEdgeStyle;rounded=0;orthogonalLoop=1;jettySize=auto;html=1;" edge="1" parent="3XaSXXcbDHOcGcoVshW3-0" source="3XaSXXcbDHOcGcoVshW3-55" target="3XaSXXcbDHOcGcoVshW3-125">
          <mxGeometry relative="1" as="geometry">
            <Array as="points">
              <mxPoint x="1100" y="530" />
              <mxPoint x="1100" y="530" />
            </Array>
          </mxGeometry>
        </mxCell>
        <mxCell id="3XaSXXcbDHOcGcoVshW3-160" value="Lisa de Piezas" style="edgeLabel;html=1;align=center;verticalAlign=middle;resizable=0;points=[];rotation=-90;" vertex="1" connectable="0" parent="3XaSXXcbDHOcGcoVshW3-145">
          <mxGeometry x="-0.2782" y="-1" relative="1" as="geometry">
            <mxPoint y="1" as="offset" />
          </mxGeometry>
        </mxCell>
        <mxCell id="3XaSXXcbDHOcGcoVshW3-166" value="0..*" style="edgeLabel;html=1;align=center;verticalAlign=middle;resizable=0;points=[];rotation=-90;" vertex="1" connectable="0" parent="3XaSXXcbDHOcGcoVshW3-145">
          <mxGeometry x="0.7444" y="-1" relative="1" as="geometry">
            <mxPoint x="11" y="2" as="offset" />
          </mxGeometry>
        </mxCell>
        <mxCell id="3XaSXXcbDHOcGcoVshW3-172" value="PiezasSubasta" style="edgeLabel;html=1;align=center;verticalAlign=middle;resizable=0;points=[];rotation=-90;" vertex="1" connectable="0" parent="3XaSXXcbDHOcGcoVshW3-145">
          <mxGeometry x="0.3324" y="-3" relative="1" as="geometry">
            <mxPoint x="-7" y="28" as="offset" />
          </mxGeometry>
        </mxCell>
        <mxCell id="3XaSXXcbDHOcGcoVshW3-146" value="" style="edgeStyle=orthogonalEdgeStyle;rounded=0;orthogonalLoop=1;jettySize=auto;html=1;" edge="1" parent="3XaSXXcbDHOcGcoVshW3-0" source="3XaSXXcbDHOcGcoVshW3-55" target="3XaSXXcbDHOcGcoVshW3-125">
          <mxGeometry x="-0.45" relative="1" as="geometry">
            <Array as="points">
              <mxPoint x="900" y="530" />
              <mxPoint x="900" y="530" />
            </Array>
            <mxPoint as="offset" />
          </mxGeometry>
        </mxCell>
        <mxCell id="3XaSXXcbDHOcGcoVshW3-152" value="Pieza" style="edgeLabel;html=1;align=center;verticalAlign=middle;resizable=0;points=[];rotation=-90;" vertex="1" connectable="0" parent="3XaSXXcbDHOcGcoVshW3-146">
          <mxGeometry x="0.6778" y="-1" relative="1" as="geometry">
            <mxPoint x="-9" y="11" as="offset" />
          </mxGeometry>
        </mxCell>
        <mxCell id="3XaSXXcbDHOcGcoVshW3-153" value="0..*" style="edgeLabel;html=1;align=center;verticalAlign=middle;resizable=0;points=[];rotation=-90;" vertex="1" connectable="0" parent="3XaSXXcbDHOcGcoVshW3-146">
          <mxGeometry x="0.6172" relative="1" as="geometry">
            <mxPoint x="10" y="18" as="offset" />
          </mxGeometry>
        </mxCell>
        <mxCell id="3XaSXXcbDHOcGcoVshW3-156" value="Lisa de Piezas" style="edgeLabel;html=1;align=center;verticalAlign=middle;resizable=0;points=[];rotation=-90;" vertex="1" connectable="0" parent="3XaSXXcbDHOcGcoVshW3-146">
          <mxGeometry x="-0.26" relative="1" as="geometry">
            <mxPoint y="-1" as="offset" />
          </mxGeometry>
        </mxCell>
        <mxCell id="3XaSXXcbDHOcGcoVshW3-147" style="edgeStyle=orthogonalEdgeStyle;rounded=0;orthogonalLoop=1;jettySize=auto;html=1;" edge="1" parent="3XaSXXcbDHOcGcoVshW3-0" source="3XaSXXcbDHOcGcoVshW3-55" target="3XaSXXcbDHOcGcoVshW3-125">
          <mxGeometry relative="1" as="geometry">
            <Array as="points">
              <mxPoint x="940" y="530" />
              <mxPoint x="940" y="530" />
            </Array>
          </mxGeometry>
        </mxCell>
        <mxCell id="3XaSXXcbDHOcGcoVshW3-154" value="Lisa de Piezas" style="edgeLabel;html=1;align=center;verticalAlign=middle;resizable=0;points=[];rotation=-90;" vertex="1" connectable="0" parent="3XaSXXcbDHOcGcoVshW3-147">
          <mxGeometry x="-0.2717" y="-1" relative="1" as="geometry">
            <mxPoint as="offset" />
          </mxGeometry>
        </mxCell>
        <mxCell id="3XaSXXcbDHOcGcoVshW3-162" value="0..*" style="edgeLabel;html=1;align=center;verticalAlign=middle;resizable=0;points=[];rotation=-90;" vertex="1" connectable="0" parent="3XaSXXcbDHOcGcoVshW3-147">
          <mxGeometry x="0.7492" y="-1" relative="1" as="geometry">
            <mxPoint x="11" y="2" as="offset" />
          </mxGeometry>
        </mxCell>
        <mxCell id="3XaSXXcbDHOcGcoVshW3-168" value="&lt;div&gt;PiezaPasada&lt;/div&gt;" style="edgeLabel;html=1;align=center;verticalAlign=middle;resizable=0;points=[];rotation=-90;" vertex="1" connectable="0" parent="3XaSXXcbDHOcGcoVshW3-147">
          <mxGeometry x="0.6582" y="-2" relative="1" as="geometry">
            <mxPoint x="-8" y="-7" as="offset" />
          </mxGeometry>
        </mxCell>
        <mxCell id="3XaSXXcbDHOcGcoVshW3-148" style="edgeStyle=orthogonalEdgeStyle;rounded=0;orthogonalLoop=1;jettySize=auto;html=1;" edge="1" parent="3XaSXXcbDHOcGcoVshW3-0" source="3XaSXXcbDHOcGcoVshW3-55" target="3XaSXXcbDHOcGcoVshW3-125">
          <mxGeometry relative="1" as="geometry">
            <Array as="points">
              <mxPoint x="980" y="530" />
              <mxPoint x="980" y="530" />
            </Array>
          </mxGeometry>
        </mxCell>
        <mxCell id="3XaSXXcbDHOcGcoVshW3-157" value="Lisa de Piezas" style="edgeLabel;html=1;align=center;verticalAlign=middle;resizable=0;points=[];rotation=-90;" vertex="1" connectable="0" parent="3XaSXXcbDHOcGcoVshW3-148">
          <mxGeometry x="-0.3145" y="-2" relative="1" as="geometry">
            <mxPoint y="5" as="offset" />
          </mxGeometry>
        </mxCell>
        <mxCell id="3XaSXXcbDHOcGcoVshW3-163" value="0..*" style="edgeLabel;html=1;align=center;verticalAlign=middle;resizable=0;points=[];rotation=-90;" vertex="1" connectable="0" parent="3XaSXXcbDHOcGcoVshW3-148">
          <mxGeometry x="0.7779" y="-1" relative="1" as="geometry">
            <mxPoint x="11" as="offset" />
          </mxGeometry>
        </mxCell>
        <mxCell id="3XaSXXcbDHOcGcoVshW3-169" value="&lt;div&gt;PiezaBodega&lt;/div&gt;" style="edgeLabel;html=1;align=center;verticalAlign=middle;resizable=0;points=[];rotation=-90;" vertex="1" connectable="0" parent="3XaSXXcbDHOcGcoVshW3-148">
          <mxGeometry x="0.5623" relative="1" as="geometry">
            <mxPoint x="-10" y="5" as="offset" />
          </mxGeometry>
        </mxCell>
        <mxCell id="3XaSXXcbDHOcGcoVshW3-149" style="edgeStyle=orthogonalEdgeStyle;rounded=0;orthogonalLoop=1;jettySize=auto;html=1;" edge="1" parent="3XaSXXcbDHOcGcoVshW3-0" source="3XaSXXcbDHOcGcoVshW3-55" target="3XaSXXcbDHOcGcoVshW3-125">
          <mxGeometry relative="1" as="geometry">
            <Array as="points">
              <mxPoint x="1020" y="530" />
              <mxPoint x="1020" y="530" />
            </Array>
          </mxGeometry>
        </mxCell>
        <mxCell id="3XaSXXcbDHOcGcoVshW3-158" value="Lisa de Piezas" style="edgeLabel;html=1;align=center;verticalAlign=middle;resizable=0;points=[];rotation=-90;" vertex="1" connectable="0" parent="3XaSXXcbDHOcGcoVshW3-149">
          <mxGeometry x="-0.2903" y="1" relative="1" as="geometry">
            <mxPoint x="-1" y="2" as="offset" />
          </mxGeometry>
        </mxCell>
        <mxCell id="3XaSXXcbDHOcGcoVshW3-164" value="0..*" style="edgeLabel;html=1;align=center;verticalAlign=middle;resizable=0;points=[];rotation=-90;" vertex="1" connectable="0" parent="3XaSXXcbDHOcGcoVshW3-149">
          <mxGeometry x="0.7492" y="2" relative="1" as="geometry">
            <mxPoint x="8" y="2" as="offset" />
          </mxGeometry>
        </mxCell>
        <mxCell id="3XaSXXcbDHOcGcoVshW3-170" value="PiezaExhibicion" style="edgeLabel;html=1;align=center;verticalAlign=middle;resizable=0;points=[];rotation=-90;" vertex="1" connectable="0" parent="3XaSXXcbDHOcGcoVshW3-149">
          <mxGeometry x="0.615" y="-1" relative="1" as="geometry">
            <mxPoint x="-9" y="-9" as="offset" />
          </mxGeometry>
        </mxCell>
        <mxCell id="3XaSXXcbDHOcGcoVshW3-150" style="edgeStyle=orthogonalEdgeStyle;rounded=0;orthogonalLoop=1;jettySize=auto;html=1;" edge="1" parent="3XaSXXcbDHOcGcoVshW3-0" source="3XaSXXcbDHOcGcoVshW3-55" target="3XaSXXcbDHOcGcoVshW3-125">
          <mxGeometry relative="1" as="geometry">
            <Array as="points">
              <mxPoint x="1060" y="530" />
              <mxPoint x="1060" y="530" />
            </Array>
          </mxGeometry>
        </mxCell>
        <mxCell id="3XaSXXcbDHOcGcoVshW3-159" value="Lisa de Piezas" style="edgeLabel;html=1;align=center;verticalAlign=middle;resizable=0;points=[];rotation=-90;" vertex="1" connectable="0" parent="3XaSXXcbDHOcGcoVshW3-150">
          <mxGeometry x="-0.2539" y="-1" relative="1" as="geometry">
            <mxPoint y="-2" as="offset" />
          </mxGeometry>
        </mxCell>
        <mxCell id="3XaSXXcbDHOcGcoVshW3-165" value="0..*" style="edgeLabel;html=1;align=center;verticalAlign=middle;resizable=0;points=[];rotation=-90;" vertex="1" connectable="0" parent="3XaSXXcbDHOcGcoVshW3-150">
          <mxGeometry x="0.7684" y="1" relative="1" as="geometry">
            <mxPoint x="9" as="offset" />
          </mxGeometry>
        </mxCell>
        <mxCell id="3XaSXXcbDHOcGcoVshW3-171" value="PiezasVentaFija" style="edgeLabel;html=1;align=center;verticalAlign=middle;resizable=0;points=[];rotation=-90;" vertex="1" connectable="0" parent="3XaSXXcbDHOcGcoVshW3-150">
          <mxGeometry x="0.5168" y="-1" relative="1" as="geometry">
            <mxPoint x="-9" y="4" as="offset" />
          </mxGeometry>
        </mxCell>
        <mxCell id="3XaSXXcbDHOcGcoVshW3-45" style="edgeStyle=orthogonalEdgeStyle;rounded=0;orthogonalLoop=1;jettySize=auto;html=1;" edge="1" parent="3XaSXXcbDHOcGcoVshW3-0" source="3XaSXXcbDHOcGcoVshW3-31" target="3XaSXXcbDHOcGcoVshW3-96">
          <mxGeometry relative="1" as="geometry">
            <Array as="points">
              <mxPoint x="730" y="800" />
              <mxPoint x="730" y="800" />
            </Array>
          </mxGeometry>
        </mxCell>
        <mxCell id="3XaSXXcbDHOcGcoVshW3-52" value="&amp;lt;&amp;lt;builds&amp;gt;&amp;gt;" style="edgeLabel;html=1;align=center;verticalAlign=middle;resizable=0;points=[];" vertex="1" connectable="0" parent="3XaSXXcbDHOcGcoVshW3-45">
          <mxGeometry x="-0.7277" y="2" relative="1" as="geometry">
            <mxPoint x="-17" as="offset" />
          </mxGeometry>
        </mxCell>
        <mxCell id="3XaSXXcbDHOcGcoVshW3-317" value="usuario" style="swimlane;whiteSpace=wrap;html=1;fillColor=#f8cecc;strokeColor=#b85450;" vertex="1" parent="3XaSXXcbDHOcGcoVshW3-0">
          <mxGeometry x="2290" y="70" width="2080" height="940" as="geometry" />
        </mxCell>
        <mxCell id="3XaSXXcbDHOcGcoVshW3-356" style="edgeStyle=orthogonalEdgeStyle;rounded=0;orthogonalLoop=1;jettySize=auto;html=1;" edge="1" parent="3XaSXXcbDHOcGcoVshW3-317" source="3XaSXXcbDHOcGcoVshW3-319" target="3XaSXXcbDHOcGcoVshW3-346">
          <mxGeometry relative="1" as="geometry">
            <Array as="points">
              <mxPoint x="750" y="290" />
              <mxPoint x="750" y="290" />
            </Array>
          </mxGeometry>
        </mxCell>
        <mxCell id="3XaSXXcbDHOcGcoVshW3-357" value="Lista de Usuarios" style="edgeLabel;html=1;align=center;verticalAlign=middle;resizable=0;points=[];" vertex="1" connectable="0" parent="3XaSXXcbDHOcGcoVshW3-356">
          <mxGeometry x="-0.8113" relative="1" as="geometry">
            <mxPoint x="19" y="-7" as="offset" />
          </mxGeometry>
        </mxCell>
        <mxCell id="3XaSXXcbDHOcGcoVshW3-358" value="usuarios" style="edgeLabel;html=1;align=center;verticalAlign=middle;resizable=0;points=[];" vertex="1" connectable="0" parent="3XaSXXcbDHOcGcoVshW3-356">
          <mxGeometry x="0.6067" y="2" relative="1" as="geometry">
            <mxPoint x="25" y="-8" as="offset" />
          </mxGeometry>
        </mxCell>
        <mxCell id="3XaSXXcbDHOcGcoVshW3-359" value="0..*" style="edgeLabel;html=1;align=center;verticalAlign=middle;resizable=0;points=[];" vertex="1" connectable="0" parent="3XaSXXcbDHOcGcoVshW3-356">
          <mxGeometry x="0.5941" y="-1" relative="1" as="geometry">
            <mxPoint x="27" y="9" as="offset" />
          </mxGeometry>
        </mxCell>
        <mxCell id="3XaSXXcbDHOcGcoVshW3-319" value="UserManager" style="swimlane;fontStyle=0;align=center;verticalAlign=top;childLayout=stackLayout;horizontal=1;startSize=26;horizontalStack=0;resizeParent=1;resizeLast=0;collapsible=1;marginBottom=0;rounded=0;shadow=0;strokeWidth=1;" vertex="1" parent="3XaSXXcbDHOcGcoVshW3-317">
          <mxGeometry x="70" y="118" width="520" height="226" as="geometry">
            <mxRectangle x="550" y="140" width="160" height="26" as="alternateBounds" />
          </mxGeometry>
        </mxCell>
        <mxCell id="3XaSXXcbDHOcGcoVshW3-320" value="" style="line;html=1;strokeWidth=1;align=left;verticalAlign=middle;spacingTop=-1;spacingLeft=3;spacingRight=3;rotatable=0;labelPosition=right;points=[];portConstraint=eastwest;" vertex="1" parent="3XaSXXcbDHOcGcoVshW3-319">
          <mxGeometry y="26" width="520" height="8" as="geometry" />
        </mxCell>
        <mxCell id="3XaSXXcbDHOcGcoVshW3-321" value="+UserManager(Galeria galeria) &#xa;" style="text;align=left;verticalAlign=top;spacingLeft=4;spacingRight=4;overflow=hidden;rotatable=0;points=[[0,0.5],[1,0.5]];portConstraint=eastwest;fontStyle=0" vertex="1" parent="3XaSXXcbDHOcGcoVshW3-319">
          <mxGeometry y="34" width="520" height="26" as="geometry" />
        </mxCell>
        <mxCell id="3XaSXXcbDHOcGcoVshW3-322" value="+addUsuario(Usuario usuario): void&#xa;" style="text;align=left;verticalAlign=top;spacingLeft=4;spacingRight=4;overflow=hidden;rotatable=0;points=[[0,0.5],[1,0.5]];portConstraint=eastwest;fontStyle=0" vertex="1" parent="3XaSXXcbDHOcGcoVshW3-319">
          <mxGeometry y="60" width="520" height="26" as="geometry" />
        </mxCell>
        <mxCell id="3XaSXXcbDHOcGcoVshW3-323" value="+removeUsuario(Usuario usuario): void&#xa;" style="text;align=left;verticalAlign=top;spacingLeft=4;spacingRight=4;overflow=hidden;rotatable=0;points=[[0,0.5],[1,0.5]];portConstraint=eastwest;fontStyle=0" vertex="1" parent="3XaSXXcbDHOcGcoVshW3-319">
          <mxGeometry y="86" width="520" height="26" as="geometry" />
        </mxCell>
        <mxCell id="3XaSXXcbDHOcGcoVshW3-324" value="+getUsuario(int identificadorUnico): Usuario&#xa;" style="text;align=left;verticalAlign=top;spacingLeft=4;spacingRight=4;overflow=hidden;rotatable=0;points=[[0,0.5],[1,0.5]];portConstraint=eastwest;fontStyle=0" vertex="1" parent="3XaSXXcbDHOcGcoVshW3-319">
          <mxGeometry y="112" width="520" height="26" as="geometry" />
        </mxCell>
        <mxCell id="3XaSXXcbDHOcGcoVshW3-325" value="+getVentas(): List&lt;Venta&gt;&#xa;" style="text;align=left;verticalAlign=top;spacingLeft=4;spacingRight=4;overflow=hidden;rotatable=0;points=[[0,0.5],[1,0.5]];portConstraint=eastwest;fontStyle=0" vertex="1" parent="3XaSXXcbDHOcGcoVshW3-319">
          <mxGeometry y="138" width="520" height="22" as="geometry" />
        </mxCell>
        <mxCell id="3XaSXXcbDHOcGcoVshW3-326" value="+addVenta(): void&#xa;" style="text;align=left;verticalAlign=top;spacingLeft=4;spacingRight=4;overflow=hidden;rotatable=0;points=[[0,0.5],[1,0.5]];portConstraint=eastwest;fontStyle=0" vertex="1" parent="3XaSXXcbDHOcGcoVshW3-319">
          <mxGeometry y="160" width="520" height="22" as="geometry" />
        </mxCell>
        <mxCell id="3XaSXXcbDHOcGcoVshW3-333" value="+getUsuarios(): List&lt;Usuario&gt;&#xa;" style="text;align=left;verticalAlign=top;spacingLeft=4;spacingRight=4;overflow=hidden;rotatable=0;points=[[0,0.5],[1,0.5]];portConstraint=eastwest;fontStyle=0" vertex="1" parent="3XaSXXcbDHOcGcoVshW3-319">
          <mxGeometry y="182" width="520" height="22" as="geometry" />
        </mxCell>
        <mxCell id="3XaSXXcbDHOcGcoVshW3-334" value="+getGaleria(): Galeria&#xa;" style="text;align=left;verticalAlign=top;spacingLeft=4;spacingRight=4;overflow=hidden;rotatable=0;points=[[0,0.5],[1,0.5]];portConstraint=eastwest;fontStyle=0" vertex="1" parent="3XaSXXcbDHOcGcoVshW3-319">
          <mxGeometry y="204" width="520" height="22" as="geometry" />
        </mxCell>
        <mxCell id="3XaSXXcbDHOcGcoVshW3-360" value="1" style="edgeStyle=orthogonalEdgeStyle;rounded=0;orthogonalLoop=1;jettySize=auto;html=1;" edge="1" parent="3XaSXXcbDHOcGcoVshW3-317" source="3XaSXXcbDHOcGcoVshW3-346" target="3XaSXXcbDHOcGcoVshW3-319">
          <mxGeometry x="0.8788" y="-11" relative="1" as="geometry">
            <Array as="points">
              <mxPoint x="760" y="190" />
              <mxPoint x="760" y="190" />
            </Array>
            <mxPoint as="offset" />
          </mxGeometry>
        </mxCell>
        <mxCell id="3XaSXXcbDHOcGcoVshW3-361" value="userManager" style="edgeLabel;html=1;align=center;verticalAlign=middle;resizable=0;points=[];" vertex="1" connectable="0" parent="3XaSXXcbDHOcGcoVshW3-360">
          <mxGeometry x="-0.7472" relative="1" as="geometry">
            <mxPoint y="-11" as="offset" />
          </mxGeometry>
        </mxCell>
        <mxCell id="3XaSXXcbDHOcGcoVshW3-346" value="&lt;&lt;abstract&gt;&gt;&#xa;Usuario" style="swimlane;fontStyle=0;align=center;verticalAlign=top;childLayout=stackLayout;horizontal=1;startSize=36;horizontalStack=0;resizeParent=1;resizeLast=0;collapsible=1;marginBottom=0;rounded=0;shadow=0;strokeWidth=1;" vertex="1" parent="3XaSXXcbDHOcGcoVshW3-317">
          <mxGeometry x="920" y="50" width="560" height="392" as="geometry">
            <mxRectangle x="550" y="140" width="160" height="26" as="alternateBounds" />
          </mxGeometry>
        </mxCell>
        <mxCell id="3XaSXXcbDHOcGcoVshW3-364" value="#nombre: String" style="text;align=left;verticalAlign=top;spacingLeft=4;spacingRight=4;overflow=hidden;rotatable=0;points=[[0,0.5],[1,0.5]];portConstraint=eastwest;fontStyle=0" vertex="1" parent="3XaSXXcbDHOcGcoVshW3-346">
          <mxGeometry y="36" width="560" height="26" as="geometry" />
        </mxCell>
        <mxCell id="3XaSXXcbDHOcGcoVshW3-365" value="#correo: String" style="text;align=left;verticalAlign=top;spacingLeft=4;spacingRight=4;overflow=hidden;rotatable=0;points=[[0,0.5],[1,0.5]];portConstraint=eastwest;fontStyle=0" vertex="1" parent="3XaSXXcbDHOcGcoVshW3-346">
          <mxGeometry y="62" width="560" height="26" as="geometry" />
        </mxCell>
        <mxCell id="3XaSXXcbDHOcGcoVshW3-366" value="#identificadorUnico: int" style="text;align=left;verticalAlign=top;spacingLeft=4;spacingRight=4;overflow=hidden;rotatable=0;points=[[0,0.5],[1,0.5]];portConstraint=eastwest;fontStyle=0" vertex="1" parent="3XaSXXcbDHOcGcoVshW3-346">
          <mxGeometry y="88" width="560" height="26" as="geometry" />
        </mxCell>
        <mxCell id="3XaSXXcbDHOcGcoVshW3-367" value="#numeroCelular: int" style="text;align=left;verticalAlign=top;spacingLeft=4;spacingRight=4;overflow=hidden;rotatable=0;points=[[0,0.5],[1,0.5]];portConstraint=eastwest;fontStyle=0" vertex="1" parent="3XaSXXcbDHOcGcoVshW3-346">
          <mxGeometry y="114" width="560" height="26" as="geometry" />
        </mxCell>
        <mxCell id="3XaSXXcbDHOcGcoVshW3-368" value="#contraseña: String" style="text;align=left;verticalAlign=top;spacingLeft=4;spacingRight=4;overflow=hidden;rotatable=0;points=[[0,0.5],[1,0.5]];portConstraint=eastwest;fontStyle=0" vertex="1" parent="3XaSXXcbDHOcGcoVshW3-346">
          <mxGeometry y="140" width="560" height="26" as="geometry" />
        </mxCell>
        <mxCell id="3XaSXXcbDHOcGcoVshW3-363" value="+listaID = new List&lt;Integer&gt;()" style="text;align=left;verticalAlign=top;spacingLeft=4;spacingRight=4;overflow=hidden;rotatable=0;points=[[0,0.5],[1,0.5]];portConstraint=eastwest;fontStyle=4" vertex="1" parent="3XaSXXcbDHOcGcoVshW3-346">
          <mxGeometry y="166" width="560" height="26" as="geometry" />
        </mxCell>
        <mxCell id="3XaSXXcbDHOcGcoVshW3-347" value="" style="line;html=1;strokeWidth=1;align=left;verticalAlign=middle;spacingTop=-1;spacingLeft=3;spacingRight=3;rotatable=0;labelPosition=right;points=[];portConstraint=eastwest;" vertex="1" parent="3XaSXXcbDHOcGcoVshW3-346">
          <mxGeometry y="192" width="560" height="8" as="geometry" />
        </mxCell>
        <mxCell id="3XaSXXcbDHOcGcoVshW3-348" value="+Usuario(String nombre, String correo, int numeroCelular, int contraseña, UserManager userManager) &#xa;" style="text;align=left;verticalAlign=top;spacingLeft=4;spacingRight=4;overflow=hidden;rotatable=0;points=[[0,0.5],[1,0.5]];portConstraint=eastwest;fontStyle=0" vertex="1" parent="3XaSXXcbDHOcGcoVshW3-346">
          <mxGeometry y="200" width="560" height="26" as="geometry" />
        </mxCell>
        <mxCell id="3XaSXXcbDHOcGcoVshW3-349" value="+getNumeroCelular(): int&#xa;" style="text;align=left;verticalAlign=top;spacingLeft=4;spacingRight=4;overflow=hidden;rotatable=0;points=[[0,0.5],[1,0.5]];portConstraint=eastwest;fontStyle=0" vertex="1" parent="3XaSXXcbDHOcGcoVshW3-346">
          <mxGeometry y="226" width="560" height="26" as="geometry" />
        </mxCell>
        <mxCell id="3XaSXXcbDHOcGcoVshW3-350" value="+setNumeroCelular(int numeroCelular): void&#xa;" style="text;align=left;verticalAlign=top;spacingLeft=4;spacingRight=4;overflow=hidden;rotatable=0;points=[[0,0.5],[1,0.5]];portConstraint=eastwest;fontStyle=0" vertex="1" parent="3XaSXXcbDHOcGcoVshW3-346">
          <mxGeometry y="252" width="560" height="26" as="geometry" />
        </mxCell>
        <mxCell id="3XaSXXcbDHOcGcoVshW3-351" value="+getContraseña(): int&#xa;" style="text;align=left;verticalAlign=top;spacingLeft=4;spacingRight=4;overflow=hidden;rotatable=0;points=[[0,0.5],[1,0.5]];portConstraint=eastwest;fontStyle=0" vertex="1" parent="3XaSXXcbDHOcGcoVshW3-346">
          <mxGeometry y="278" width="560" height="26" as="geometry" />
        </mxCell>
        <mxCell id="3XaSXXcbDHOcGcoVshW3-352" value="+setContraseña(int contraseña): void&#xa;" style="text;align=left;verticalAlign=top;spacingLeft=4;spacingRight=4;overflow=hidden;rotatable=0;points=[[0,0.5],[1,0.5]];portConstraint=eastwest;fontStyle=0" vertex="1" parent="3XaSXXcbDHOcGcoVshW3-346">
          <mxGeometry y="304" width="560" height="22" as="geometry" />
        </mxCell>
        <mxCell id="3XaSXXcbDHOcGcoVshW3-353" value="+getNombre(): String&#xa;" style="text;align=left;verticalAlign=top;spacingLeft=4;spacingRight=4;overflow=hidden;rotatable=0;points=[[0,0.5],[1,0.5]];portConstraint=eastwest;fontStyle=0" vertex="1" parent="3XaSXXcbDHOcGcoVshW3-346">
          <mxGeometry y="326" width="560" height="22" as="geometry" />
        </mxCell>
        <mxCell id="3XaSXXcbDHOcGcoVshW3-354" value="+getIdentificadorUnico(): int&#xa;" style="text;align=left;verticalAlign=top;spacingLeft=4;spacingRight=4;overflow=hidden;rotatable=0;points=[[0,0.5],[1,0.5]];portConstraint=eastwest;fontStyle=0" vertex="1" parent="3XaSXXcbDHOcGcoVshW3-346">
          <mxGeometry y="348" width="560" height="22" as="geometry" />
        </mxCell>
        <mxCell id="3XaSXXcbDHOcGcoVshW3-355" value="+getTipoUsuario(): String&#xa;" style="text;align=left;verticalAlign=top;spacingLeft=4;spacingRight=4;overflow=hidden;rotatable=0;points=[[0,0.5],[1,0.5]];portConstraint=eastwest;fontStyle=0" vertex="1" parent="3XaSXXcbDHOcGcoVshW3-346">
          <mxGeometry y="370" width="560" height="22" as="geometry" />
        </mxCell>
        <mxCell id="3XaSXXcbDHOcGcoVshW3-402" style="edgeStyle=orthogonalEdgeStyle;rounded=0;orthogonalLoop=1;jettySize=auto;html=1;endArrow=block;endFill=0;" edge="1" parent="3XaSXXcbDHOcGcoVshW3-317" source="3XaSXXcbDHOcGcoVshW3-379" target="3XaSXXcbDHOcGcoVshW3-346">
          <mxGeometry relative="1" as="geometry">
            <Array as="points">
              <mxPoint x="1530" y="111" />
              <mxPoint x="1530" y="111" />
            </Array>
          </mxGeometry>
        </mxCell>
        <mxCell id="3XaSXXcbDHOcGcoVshW3-403" value="extends" style="edgeLabel;html=1;align=center;verticalAlign=middle;resizable=0;points=[];" vertex="1" connectable="0" parent="3XaSXXcbDHOcGcoVshW3-402">
          <mxGeometry x="-0.6457" relative="1" as="geometry">
            <mxPoint y="-11" as="offset" />
          </mxGeometry>
        </mxCell>
        <mxCell id="3XaSXXcbDHOcGcoVshW3-379" value="Operario" style="swimlane;fontStyle=0;align=center;verticalAlign=top;childLayout=stackLayout;horizontal=1;startSize=26;horizontalStack=0;resizeParent=1;resizeLast=0;collapsible=1;marginBottom=0;rounded=0;shadow=0;strokeWidth=1;" vertex="1" parent="3XaSXXcbDHOcGcoVshW3-317">
          <mxGeometry x="1695" y="50" width="330" height="122" as="geometry">
            <mxRectangle x="550" y="140" width="160" height="26" as="alternateBounds" />
          </mxGeometry>
        </mxCell>
        <mxCell id="3XaSXXcbDHOcGcoVshW3-381" value="+Operario(String nombre, String correo, int numeroCelular, &#xa;int contraseña, UserManager userManager)&#xa;" style="text;align=left;verticalAlign=top;spacingLeft=4;spacingRight=4;overflow=hidden;rotatable=0;points=[[0,0.5],[1,0.5]];portConstraint=eastwest;fontStyle=0" vertex="1" parent="3XaSXXcbDHOcGcoVshW3-379">
          <mxGeometry y="26" width="330" height="36" as="geometry" />
        </mxCell>
        <mxCell id="3XaSXXcbDHOcGcoVshW3-380" value="" style="line;html=1;strokeWidth=1;align=left;verticalAlign=middle;spacingTop=-1;spacingLeft=3;spacingRight=3;rotatable=0;labelPosition=right;points=[];portConstraint=eastwest;" vertex="1" parent="3XaSXXcbDHOcGcoVshW3-379">
          <mxGeometry y="62" width="330" height="8" as="geometry" />
        </mxCell>
        <mxCell id="3XaSXXcbDHOcGcoVshW3-382" value="+getTipoUsuario(): String&#xa;" style="text;align=left;verticalAlign=top;spacingLeft=4;spacingRight=4;overflow=hidden;rotatable=0;points=[[0,0.5],[1,0.5]];portConstraint=eastwest;fontStyle=0" vertex="1" parent="3XaSXXcbDHOcGcoVshW3-379">
          <mxGeometry y="70" width="330" height="26" as="geometry" />
        </mxCell>
        <mxCell id="3XaSXXcbDHOcGcoVshW3-383" value="+modificaFechaRetorno(int idPieza, Date fecha): void&#xa;" style="text;align=left;verticalAlign=top;spacingLeft=4;spacingRight=4;overflow=hidden;rotatable=0;points=[[0,0.5],[1,0.5]];portConstraint=eastwest;fontStyle=0" vertex="1" parent="3XaSXXcbDHOcGcoVshW3-379">
          <mxGeometry y="96" width="330" height="26" as="geometry" />
        </mxCell>
        <mxCell id="3XaSXXcbDHOcGcoVshW3-404" style="edgeStyle=orthogonalEdgeStyle;rounded=0;orthogonalLoop=1;jettySize=auto;html=1;endArrow=block;endFill=0;" edge="1" parent="3XaSXXcbDHOcGcoVshW3-317" source="3XaSXXcbDHOcGcoVshW3-384" target="3XaSXXcbDHOcGcoVshW3-346">
          <mxGeometry relative="1" as="geometry">
            <Array as="points">
              <mxPoint x="1530" y="726" />
              <mxPoint x="1530" y="410" />
            </Array>
          </mxGeometry>
        </mxCell>
        <mxCell id="3XaSXXcbDHOcGcoVshW3-405" value="extends" style="edgeLabel;html=1;align=center;verticalAlign=middle;resizable=0;points=[];" vertex="1" connectable="0" parent="3XaSXXcbDHOcGcoVshW3-404">
          <mxGeometry x="-0.8428" y="1" relative="1" as="geometry">
            <mxPoint x="18" y="-14" as="offset" />
          </mxGeometry>
        </mxCell>
        <mxCell id="3XaSXXcbDHOcGcoVshW3-384" value="Cliente" style="swimlane;fontStyle=0;align=center;verticalAlign=top;childLayout=stackLayout;horizontal=1;startSize=30;horizontalStack=0;resizeParent=1;resizeLast=0;collapsible=1;marginBottom=0;rounded=0;shadow=0;strokeWidth=1;" vertex="1" parent="3XaSXXcbDHOcGcoVshW3-317">
          <mxGeometry x="1660" y="530" width="400" height="392" as="geometry">
            <mxRectangle x="550" y="140" width="160" height="26" as="alternateBounds" />
          </mxGeometry>
        </mxCell>
        <mxCell id="3XaSXXcbDHOcGcoVshW3-385" value="-monto: double" style="text;align=left;verticalAlign=top;spacingLeft=4;spacingRight=4;overflow=hidden;rotatable=0;points=[[0,0.5],[1,0.5]];portConstraint=eastwest;fontStyle=0" vertex="1" parent="3XaSXXcbDHOcGcoVshW3-384">
          <mxGeometry y="30" width="400" height="26" as="geometry" />
        </mxCell>
        <mxCell id="3XaSXXcbDHOcGcoVshW3-386" value="-dineroTotal: double&#xa;" style="text;align=left;verticalAlign=top;spacingLeft=4;spacingRight=4;overflow=hidden;rotatable=0;points=[[0,0.5],[1,0.5]];portConstraint=eastwest;fontStyle=0" vertex="1" parent="3XaSXXcbDHOcGcoVshW3-384">
          <mxGeometry y="56" width="400" height="26" as="geometry" />
        </mxCell>
        <mxCell id="3XaSXXcbDHOcGcoVshW3-387" value="-piezasCompradas: List&lt;Pieza&gt;&#xa;" style="text;align=left;verticalAlign=top;spacingLeft=4;spacingRight=4;overflow=hidden;rotatable=0;points=[[0,0.5],[1,0.5]];portConstraint=eastwest;fontStyle=0" vertex="1" parent="3XaSXXcbDHOcGcoVshW3-384">
          <mxGeometry y="82" width="400" height="26" as="geometry" />
        </mxCell>
        <mxCell id="3XaSXXcbDHOcGcoVshW3-388" value="-piezasConsignadas: List&lt;Pieza&gt;&#xa;" style="text;align=left;verticalAlign=top;spacingLeft=4;spacingRight=4;overflow=hidden;rotatable=0;points=[[0,0.5],[1,0.5]];portConstraint=eastwest;fontStyle=0" vertex="1" parent="3XaSXXcbDHOcGcoVshW3-384">
          <mxGeometry y="108" width="400" height="26" as="geometry" />
        </mxCell>
        <mxCell id="3XaSXXcbDHOcGcoVshW3-391" value="" style="line;html=1;strokeWidth=1;align=left;verticalAlign=middle;spacingTop=-1;spacingLeft=3;spacingRight=3;rotatable=0;labelPosition=right;points=[];portConstraint=eastwest;" vertex="1" parent="3XaSXXcbDHOcGcoVshW3-384">
          <mxGeometry y="134" width="400" height="8" as="geometry" />
        </mxCell>
        <mxCell id="3XaSXXcbDHOcGcoVshW3-392" value="+Cliente(String nombre, String correo, int numeroCelular, int contraseña, &#xa;double monto, UserManager userManager, double dineroTotal) &#xa;" style="text;align=left;verticalAlign=top;spacingLeft=4;spacingRight=4;overflow=hidden;rotatable=0;points=[[0,0.5],[1,0.5]];portConstraint=eastwest;fontStyle=0" vertex="1" parent="3XaSXXcbDHOcGcoVshW3-384">
          <mxGeometry y="142" width="400" height="38" as="geometry" />
        </mxCell>
        <mxCell id="3XaSXXcbDHOcGcoVshW3-393" value="+getDineroTotal(): double&#xa;" style="text;align=left;verticalAlign=top;spacingLeft=4;spacingRight=4;overflow=hidden;rotatable=0;points=[[0,0.5],[1,0.5]];portConstraint=eastwest;fontStyle=0" vertex="1" parent="3XaSXXcbDHOcGcoVshW3-384">
          <mxGeometry y="180" width="400" height="26" as="geometry" />
        </mxCell>
        <mxCell id="3XaSXXcbDHOcGcoVshW3-394" value="+setDineroTotal(double dineroTotal): void&#xa;" style="text;align=left;verticalAlign=top;spacingLeft=4;spacingRight=4;overflow=hidden;rotatable=0;points=[[0,0.5],[1,0.5]];portConstraint=eastwest;fontStyle=0" vertex="1" parent="3XaSXXcbDHOcGcoVshW3-384">
          <mxGeometry y="206" width="400" height="26" as="geometry" />
        </mxCell>
        <mxCell id="3XaSXXcbDHOcGcoVshW3-395" value="+getMonto(): double&#xa;" style="text;align=left;verticalAlign=top;spacingLeft=4;spacingRight=4;overflow=hidden;rotatable=0;points=[[0,0.5],[1,0.5]];portConstraint=eastwest;fontStyle=0" vertex="1" parent="3XaSXXcbDHOcGcoVshW3-384">
          <mxGeometry y="232" width="400" height="26" as="geometry" />
        </mxCell>
        <mxCell id="3XaSXXcbDHOcGcoVshW3-396" value="+setMonto(double monto): void&#xa;" style="text;align=left;verticalAlign=top;spacingLeft=4;spacingRight=4;overflow=hidden;rotatable=0;points=[[0,0.5],[1,0.5]];portConstraint=eastwest;fontStyle=0" vertex="1" parent="3XaSXXcbDHOcGcoVshW3-384">
          <mxGeometry y="258" width="400" height="22" as="geometry" />
        </mxCell>
        <mxCell id="3XaSXXcbDHOcGcoVshW3-397" value="+getPiezasCompradas(): List&lt;Pieza&gt;&#xa;" style="text;align=left;verticalAlign=top;spacingLeft=4;spacingRight=4;overflow=hidden;rotatable=0;points=[[0,0.5],[1,0.5]];portConstraint=eastwest;fontStyle=0" vertex="1" parent="3XaSXXcbDHOcGcoVshW3-384">
          <mxGeometry y="280" width="400" height="22" as="geometry" />
        </mxCell>
        <mxCell id="3XaSXXcbDHOcGcoVshW3-398" value="+getPiezasConsignadas(): List&lt;Pieza&gt;&#xa;" style="text;align=left;verticalAlign=top;spacingLeft=4;spacingRight=4;overflow=hidden;rotatable=0;points=[[0,0.5],[1,0.5]];portConstraint=eastwest;fontStyle=0" vertex="1" parent="3XaSXXcbDHOcGcoVshW3-384">
          <mxGeometry y="302" width="400" height="22" as="geometry" />
        </mxCell>
        <mxCell id="3XaSXXcbDHOcGcoVshW3-400" value="+getTipoUsuario(): String&#xa;" style="text;align=left;verticalAlign=top;spacingLeft=4;spacingRight=4;overflow=hidden;rotatable=0;points=[[0,0.5],[1,0.5]];portConstraint=eastwest;fontStyle=0" vertex="1" parent="3XaSXXcbDHOcGcoVshW3-384">
          <mxGeometry y="324" width="400" height="22" as="geometry" />
        </mxCell>
        <mxCell id="3XaSXXcbDHOcGcoVshW3-401" value="+consignarPieza(Pieza pieza, String modalidad): void&#xa;" style="text;align=left;verticalAlign=top;spacingLeft=4;spacingRight=4;overflow=hidden;rotatable=0;points=[[0,0.5],[1,0.5]];portConstraint=eastwest;fontStyle=0" vertex="1" parent="3XaSXXcbDHOcGcoVshW3-384">
          <mxGeometry y="346" width="400" height="22" as="geometry" />
        </mxCell>
        <mxCell id="3XaSXXcbDHOcGcoVshW3-399" value="+comprarPieza(int identificadorUnico, String modalidad): void&#xa;" style="text;align=left;verticalAlign=top;spacingLeft=4;spacingRight=4;overflow=hidden;rotatable=0;points=[[0,0.5],[1,0.5]];portConstraint=eastwest;fontStyle=0" vertex="1" parent="3XaSXXcbDHOcGcoVshW3-384">
          <mxGeometry y="368" width="400" height="22" as="geometry" />
        </mxCell>
        <mxCell id="3XaSXXcbDHOcGcoVshW3-426" style="edgeStyle=orthogonalEdgeStyle;rounded=0;orthogonalLoop=1;jettySize=auto;html=1;endArrow=block;endFill=0;" edge="1" parent="3XaSXXcbDHOcGcoVshW3-317" source="3XaSXXcbDHOcGcoVshW3-406" target="3XaSXXcbDHOcGcoVshW3-346">
          <mxGeometry relative="1" as="geometry">
            <mxPoint x="1520" y="179.9999999999999" as="targetPoint" />
            <Array as="points">
              <mxPoint x="1580" y="260" />
              <mxPoint x="1580" y="260" />
            </Array>
          </mxGeometry>
        </mxCell>
        <mxCell id="3XaSXXcbDHOcGcoVshW3-427" value="extends" style="edgeLabel;html=1;align=center;verticalAlign=middle;resizable=0;points=[];" vertex="1" connectable="0" parent="3XaSXXcbDHOcGcoVshW3-426">
          <mxGeometry x="-0.7519" y="-1" relative="1" as="geometry">
            <mxPoint y="-7" as="offset" />
          </mxGeometry>
        </mxCell>
        <mxCell id="3XaSXXcbDHOcGcoVshW3-406" value="Cajero" style="swimlane;fontStyle=0;align=center;verticalAlign=top;childLayout=stackLayout;horizontal=1;startSize=30;horizontalStack=0;resizeParent=1;resizeLast=0;collapsible=1;marginBottom=0;rounded=0;shadow=0;strokeWidth=1;" vertex="1" parent="3XaSXXcbDHOcGcoVshW3-317">
          <mxGeometry x="1680" y="190" width="360" height="130" as="geometry">
            <mxRectangle x="550" y="140" width="160" height="26" as="alternateBounds" />
          </mxGeometry>
        </mxCell>
        <mxCell id="3XaSXXcbDHOcGcoVshW3-411" value="" style="line;html=1;strokeWidth=1;align=left;verticalAlign=middle;spacingTop=-1;spacingLeft=3;spacingRight=3;rotatable=0;labelPosition=right;points=[];portConstraint=eastwest;" vertex="1" parent="3XaSXXcbDHOcGcoVshW3-406">
          <mxGeometry y="30" width="360" height="8" as="geometry" />
        </mxCell>
        <mxCell id="3XaSXXcbDHOcGcoVshW3-412" value="+Cajero(String nombre, String correo, int numeroCelular, &#xa;int contraseña, UserManager userManager)&#xa;" style="text;align=left;verticalAlign=top;spacingLeft=4;spacingRight=4;overflow=hidden;rotatable=0;points=[[0,0.5],[1,0.5]];portConstraint=eastwest;fontStyle=0" vertex="1" parent="3XaSXXcbDHOcGcoVshW3-406">
          <mxGeometry y="38" width="360" height="38" as="geometry" />
        </mxCell>
        <mxCell id="3XaSXXcbDHOcGcoVshW3-413" value="+getTipoUsuario(): String&#xa;&#xa;" style="text;align=left;verticalAlign=top;spacingLeft=4;spacingRight=4;overflow=hidden;rotatable=0;points=[[0,0.5],[1,0.5]];portConstraint=eastwest;fontStyle=0" vertex="1" parent="3XaSXXcbDHOcGcoVshW3-406">
          <mxGeometry y="76" width="360" height="26" as="geometry" />
        </mxCell>
        <mxCell id="3XaSXXcbDHOcGcoVshW3-414" value="+registrarVenta(Venta venta, UserManager userManager): void&#xa;" style="text;align=left;verticalAlign=top;spacingLeft=4;spacingRight=4;overflow=hidden;rotatable=0;points=[[0,0.5],[1,0.5]];portConstraint=eastwest;fontStyle=4" vertex="1" parent="3XaSXXcbDHOcGcoVshW3-406">
          <mxGeometry y="102" width="360" height="26" as="geometry" />
        </mxCell>
        <mxCell id="3XaSXXcbDHOcGcoVshW3-434" style="edgeStyle=orthogonalEdgeStyle;rounded=0;orthogonalLoop=1;jettySize=auto;html=1;endArrow=block;endFill=0;" edge="1" parent="3XaSXXcbDHOcGcoVshW3-317" source="3XaSXXcbDHOcGcoVshW3-428" target="3XaSXXcbDHOcGcoVshW3-346">
          <mxGeometry relative="1" as="geometry">
            <Array as="points">
              <mxPoint x="1580" y="421" />
              <mxPoint x="1580" y="330" />
            </Array>
          </mxGeometry>
        </mxCell>
        <mxCell id="3XaSXXcbDHOcGcoVshW3-435" value="extends" style="edgeLabel;html=1;align=center;verticalAlign=middle;resizable=0;points=[];" vertex="1" connectable="0" parent="3XaSXXcbDHOcGcoVshW3-434">
          <mxGeometry x="-0.7302" y="2" relative="1" as="geometry">
            <mxPoint x="-1" as="offset" />
          </mxGeometry>
        </mxCell>
        <mxCell id="3XaSXXcbDHOcGcoVshW3-428" value="Cajero" style="swimlane;fontStyle=0;align=center;verticalAlign=top;childLayout=stackLayout;horizontal=1;startSize=30;horizontalStack=0;resizeParent=1;resizeLast=0;collapsible=1;marginBottom=0;rounded=0;shadow=0;strokeWidth=1;" vertex="1" parent="3XaSXXcbDHOcGcoVshW3-317">
          <mxGeometry x="1680" y="344" width="360" height="154" as="geometry">
            <mxRectangle x="550" y="140" width="160" height="26" as="alternateBounds" />
          </mxGeometry>
        </mxCell>
        <mxCell id="3XaSXXcbDHOcGcoVshW3-429" value="" style="line;html=1;strokeWidth=1;align=left;verticalAlign=middle;spacingTop=-1;spacingLeft=3;spacingRight=3;rotatable=0;labelPosition=right;points=[];portConstraint=eastwest;" vertex="1" parent="3XaSXXcbDHOcGcoVshW3-428">
          <mxGeometry y="30" width="360" height="8" as="geometry" />
        </mxCell>
        <mxCell id="3XaSXXcbDHOcGcoVshW3-430" value="+Administrador(String nombre, String correo, int numeroCelular, &#xa;int contraseña, UserManager userManager) &#xa;" style="text;align=left;verticalAlign=top;spacingLeft=4;spacingRight=4;overflow=hidden;rotatable=0;points=[[0,0.5],[1,0.5]];portConstraint=eastwest;fontStyle=0" vertex="1" parent="3XaSXXcbDHOcGcoVshW3-428">
          <mxGeometry y="38" width="360" height="38" as="geometry" />
        </mxCell>
        <mxCell id="3XaSXXcbDHOcGcoVshW3-431" value="+getTipoUsuario(): String&#xa;&#xa;" style="text;align=left;verticalAlign=top;spacingLeft=4;spacingRight=4;overflow=hidden;rotatable=0;points=[[0,0.5],[1,0.5]];portConstraint=eastwest;fontStyle=0" vertex="1" parent="3XaSXXcbDHOcGcoVshW3-428">
          <mxGeometry y="76" width="360" height="26" as="geometry" />
        </mxCell>
        <mxCell id="3XaSXXcbDHOcGcoVshW3-433" value="+confirmarConsignacion(Pieza pieza, ArrayList&lt;Pieza&gt; piezas): boolean&#xa;" style="text;align=left;verticalAlign=top;spacingLeft=4;spacingRight=4;overflow=hidden;rotatable=0;points=[[0,0.5],[1,0.5]];portConstraint=eastwest;fontStyle=4" vertex="1" parent="3XaSXXcbDHOcGcoVshW3-428">
          <mxGeometry y="102" width="360" height="26" as="geometry" />
        </mxCell>
        <mxCell id="3XaSXXcbDHOcGcoVshW3-432" value="+confirmarCompra(Cliente comprador): boolean&#xa;" style="text;align=left;verticalAlign=top;spacingLeft=4;spacingRight=4;overflow=hidden;rotatable=0;points=[[0,0.5],[1,0.5]];portConstraint=eastwest;fontStyle=4" vertex="1" parent="3XaSXXcbDHOcGcoVshW3-428">
          <mxGeometry y="128" width="360" height="26" as="geometry" />
        </mxCell>
        <mxCell id="3XaSXXcbDHOcGcoVshW3-327" style="edgeStyle=orthogonalEdgeStyle;rounded=0;orthogonalLoop=1;jettySize=auto;html=1;" edge="1" parent="3XaSXXcbDHOcGcoVshW3-0" source="3XaSXXcbDHOcGcoVshW3-319" target="3XaSXXcbDHOcGcoVshW3-77">
          <mxGeometry relative="1" as="geometry">
            <Array as="points">
              <mxPoint x="2210" y="240" />
              <mxPoint x="2210" y="240" />
            </Array>
          </mxGeometry>
        </mxCell>
        <mxCell id="3XaSXXcbDHOcGcoVshW3-328" value="galeria" style="edgeLabel;html=1;align=center;verticalAlign=middle;resizable=0;points=[];" vertex="1" connectable="0" parent="3XaSXXcbDHOcGcoVshW3-327">
          <mxGeometry x="-0.7525" y="5" relative="1" as="geometry">
            <mxPoint x="16" y="-13" as="offset" />
          </mxGeometry>
        </mxCell>
        <mxCell id="3XaSXXcbDHOcGcoVshW3-329" value="1" style="edgeLabel;html=1;align=center;verticalAlign=middle;resizable=0;points=[];" vertex="1" connectable="0" parent="3XaSXXcbDHOcGcoVshW3-327">
          <mxGeometry x="0.8009" relative="1" as="geometry">
            <mxPoint x="-17" y="-8" as="offset" />
          </mxGeometry>
        </mxCell>
        <mxCell id="3XaSXXcbDHOcGcoVshW3-330" style="edgeStyle=orthogonalEdgeStyle;rounded=0;orthogonalLoop=1;jettySize=auto;html=1;" edge="1" parent="3XaSXXcbDHOcGcoVshW3-0" source="3XaSXXcbDHOcGcoVshW3-77" target="3XaSXXcbDHOcGcoVshW3-319">
          <mxGeometry relative="1" as="geometry">
            <Array as="points">
              <mxPoint x="2210" y="360" />
              <mxPoint x="2210" y="360" />
            </Array>
          </mxGeometry>
        </mxCell>
        <mxCell id="3XaSXXcbDHOcGcoVshW3-331" value="1" style="edgeLabel;html=1;align=center;verticalAlign=middle;resizable=0;points=[];" vertex="1" connectable="0" parent="3XaSXXcbDHOcGcoVshW3-330">
          <mxGeometry x="0.8247" y="-1" relative="1" as="geometry">
            <mxPoint x="13" y="-8" as="offset" />
          </mxGeometry>
        </mxCell>
        <mxCell id="3XaSXXcbDHOcGcoVshW3-332" value="userManager" style="edgeLabel;html=1;align=center;verticalAlign=middle;resizable=0;points=[];" vertex="1" connectable="0" parent="3XaSXXcbDHOcGcoVshW3-330">
          <mxGeometry x="-0.8157" relative="1" as="geometry">
            <mxPoint x="9" y="-10" as="offset" />
          </mxGeometry>
        </mxCell>
        <mxCell id="3XaSXXcbDHOcGcoVshW3-436" value="ventas" style="swimlane;whiteSpace=wrap;html=1;fillColor=#f8cecc;strokeColor=#b85450;" vertex="1" parent="3XaSXXcbDHOcGcoVshW3-0">
          <mxGeometry x="2290" y="1130" width="2080" height="630" as="geometry" />
        </mxCell>
        <mxCell id="3XaSXXcbDHOcGcoVshW3-437" style="edgeStyle=orthogonalEdgeStyle;rounded=0;orthogonalLoop=1;jettySize=auto;html=1;" edge="1" parent="3XaSXXcbDHOcGcoVshW3-436" source="3XaSXXcbDHOcGcoVshW3-441" target="3XaSXXcbDHOcGcoVshW3-453">
          <mxGeometry relative="1" as="geometry">
            <Array as="points">
              <mxPoint x="750" y="290" />
              <mxPoint x="750" y="290" />
            </Array>
          </mxGeometry>
        </mxCell>
        <mxCell id="3XaSXXcbDHOcGcoVshW3-438" value="Lista de Ventas" style="edgeLabel;html=1;align=center;verticalAlign=middle;resizable=0;points=[];" vertex="1" connectable="0" parent="3XaSXXcbDHOcGcoVshW3-437">
          <mxGeometry x="-0.8113" relative="1" as="geometry">
            <mxPoint x="19" y="-7" as="offset" />
          </mxGeometry>
        </mxCell>
        <mxCell id="3XaSXXcbDHOcGcoVshW3-439" value="ventas" style="edgeLabel;html=1;align=center;verticalAlign=middle;resizable=0;points=[];" vertex="1" connectable="0" parent="3XaSXXcbDHOcGcoVshW3-437">
          <mxGeometry x="0.6067" y="2" relative="1" as="geometry">
            <mxPoint x="94" y="-8" as="offset" />
          </mxGeometry>
        </mxCell>
        <mxCell id="3XaSXXcbDHOcGcoVshW3-440" value="0..*" style="edgeLabel;html=1;align=center;verticalAlign=middle;resizable=0;points=[];" vertex="1" connectable="0" parent="3XaSXXcbDHOcGcoVshW3-437">
          <mxGeometry x="0.5941" y="-1" relative="1" as="geometry">
            <mxPoint x="96" y="9" as="offset" />
          </mxGeometry>
        </mxCell>
        <mxCell id="3XaSXXcbDHOcGcoVshW3-441" value="VentasManager" style="swimlane;fontStyle=0;align=center;verticalAlign=top;childLayout=stackLayout;horizontal=1;startSize=26;horizontalStack=0;resizeParent=1;resizeLast=0;collapsible=1;marginBottom=0;rounded=0;shadow=0;strokeWidth=1;" vertex="1" parent="3XaSXXcbDHOcGcoVshW3-436">
          <mxGeometry x="70" y="118" width="520" height="142" as="geometry">
            <mxRectangle x="550" y="140" width="160" height="26" as="alternateBounds" />
          </mxGeometry>
        </mxCell>
        <mxCell id="3XaSXXcbDHOcGcoVshW3-442" value="" style="line;html=1;strokeWidth=1;align=left;verticalAlign=middle;spacingTop=-1;spacingLeft=3;spacingRight=3;rotatable=0;labelPosition=right;points=[];portConstraint=eastwest;" vertex="1" parent="3XaSXXcbDHOcGcoVshW3-441">
          <mxGeometry y="26" width="520" height="8" as="geometry" />
        </mxCell>
        <mxCell id="3XaSXXcbDHOcGcoVshW3-443" value="+VentasManager(Galeria galeria) &#xa;" style="text;align=left;verticalAlign=top;spacingLeft=4;spacingRight=4;overflow=hidden;rotatable=0;points=[[0,0.5],[1,0.5]];portConstraint=eastwest;fontStyle=0" vertex="1" parent="3XaSXXcbDHOcGcoVshW3-441">
          <mxGeometry y="34" width="520" height="26" as="geometry" />
        </mxCell>
        <mxCell id="3XaSXXcbDHOcGcoVshW3-444" value="+getVentas(): List&lt;Venta&gt;&#xa;" style="text;align=left;verticalAlign=top;spacingLeft=4;spacingRight=4;overflow=hidden;rotatable=0;points=[[0,0.5],[1,0.5]];portConstraint=eastwest;fontStyle=0" vertex="1" parent="3XaSXXcbDHOcGcoVshW3-441">
          <mxGeometry y="60" width="520" height="26" as="geometry" />
        </mxCell>
        <mxCell id="3XaSXXcbDHOcGcoVshW3-445" value="+getGaleria(): Galeria&#xa;" style="text;align=left;verticalAlign=top;spacingLeft=4;spacingRight=4;overflow=hidden;rotatable=0;points=[[0,0.5],[1,0.5]];portConstraint=eastwest;fontStyle=0" vertex="1" parent="3XaSXXcbDHOcGcoVshW3-441">
          <mxGeometry y="86" width="520" height="26" as="geometry" />
        </mxCell>
        <mxCell id="3XaSXXcbDHOcGcoVshW3-446" value="+addVenta(Venta venta): void&#xa;" style="text;align=left;verticalAlign=top;spacingLeft=4;spacingRight=4;overflow=hidden;rotatable=0;points=[[0,0.5],[1,0.5]];portConstraint=eastwest;fontStyle=0" vertex="1" parent="3XaSXXcbDHOcGcoVshW3-441">
          <mxGeometry y="112" width="520" height="26" as="geometry" />
        </mxCell>
        <mxCell id="3XaSXXcbDHOcGcoVshW3-451" value="1" style="edgeStyle=orthogonalEdgeStyle;rounded=0;orthogonalLoop=1;jettySize=auto;html=1;" edge="1" parent="3XaSXXcbDHOcGcoVshW3-436" source="3XaSXXcbDHOcGcoVshW3-453" target="3XaSXXcbDHOcGcoVshW3-441">
          <mxGeometry x="0.8788" y="-11" relative="1" as="geometry">
            <Array as="points">
              <mxPoint x="760" y="190" />
              <mxPoint x="760" y="190" />
            </Array>
            <mxPoint as="offset" />
          </mxGeometry>
        </mxCell>
        <mxCell id="3XaSXXcbDHOcGcoVshW3-452" value="ventasManager" style="edgeLabel;html=1;align=center;verticalAlign=middle;resizable=0;points=[];" vertex="1" connectable="0" parent="3XaSXXcbDHOcGcoVshW3-451">
          <mxGeometry x="-0.7472" relative="1" as="geometry">
            <mxPoint y="-11" as="offset" />
          </mxGeometry>
        </mxCell>
        <mxCell id="3XaSXXcbDHOcGcoVshW3-453" value="&lt;&lt;abstract&gt;&gt;&#xa;Venta" style="swimlane;fontStyle=0;align=center;verticalAlign=top;childLayout=stackLayout;horizontal=1;startSize=36;horizontalStack=0;resizeParent=1;resizeLast=0;collapsible=1;marginBottom=0;rounded=0;shadow=0;strokeWidth=1;" vertex="1" parent="3XaSXXcbDHOcGcoVshW3-436">
          <mxGeometry x="920" y="118" width="560" height="392" as="geometry">
            <mxRectangle x="550" y="140" width="160" height="26" as="alternateBounds" />
          </mxGeometry>
        </mxCell>
        <mxCell id="3XaSXXcbDHOcGcoVshW3-454" value="#pieza: Pieza&#xa;" style="text;align=left;verticalAlign=top;spacingLeft=4;spacingRight=4;overflow=hidden;rotatable=0;points=[[0,0.5],[1,0.5]];portConstraint=eastwest;fontStyle=0" vertex="1" parent="3XaSXXcbDHOcGcoVshW3-453">
          <mxGeometry y="36" width="560" height="26" as="geometry" />
        </mxCell>
        <mxCell id="3XaSXXcbDHOcGcoVshW3-455" value="#fecha: Date&#xa;" style="text;align=left;verticalAlign=top;spacingLeft=4;spacingRight=4;overflow=hidden;rotatable=0;points=[[0,0.5],[1,0.5]];portConstraint=eastwest;fontStyle=0" vertex="1" parent="3XaSXXcbDHOcGcoVshW3-453">
          <mxGeometry y="62" width="560" height="26" as="geometry" />
        </mxCell>
        <mxCell id="3XaSXXcbDHOcGcoVshW3-456" value="#precioFinal: double&#xa;" style="text;align=left;verticalAlign=top;spacingLeft=4;spacingRight=4;overflow=hidden;rotatable=0;points=[[0,0.5],[1,0.5]];portConstraint=eastwest;fontStyle=0" vertex="1" parent="3XaSXXcbDHOcGcoVshW3-453">
          <mxGeometry y="88" width="560" height="26" as="geometry" />
        </mxCell>
        <mxCell id="3XaSXXcbDHOcGcoVshW3-457" value="#ganador: Clienta&#xa;" style="text;align=left;verticalAlign=top;spacingLeft=4;spacingRight=4;overflow=hidden;rotatable=0;points=[[0,0.5],[1,0.5]];portConstraint=eastwest;fontStyle=0" vertex="1" parent="3XaSXXcbDHOcGcoVshW3-453">
          <mxGeometry y="114" width="560" height="26" as="geometry" />
        </mxCell>
        <mxCell id="3XaSXXcbDHOcGcoVshW3-458" value="#ventasManager: VentasManager&#xa;" style="text;align=left;verticalAlign=top;spacingLeft=4;spacingRight=4;overflow=hidden;rotatable=0;points=[[0,0.5],[1,0.5]];portConstraint=eastwest;fontStyle=0" vertex="1" parent="3XaSXXcbDHOcGcoVshW3-453">
          <mxGeometry y="140" width="560" height="26" as="geometry" />
        </mxCell>
        <mxCell id="3XaSXXcbDHOcGcoVshW3-460" value="" style="line;html=1;strokeWidth=1;align=left;verticalAlign=middle;spacingTop=-1;spacingLeft=3;spacingRight=3;rotatable=0;labelPosition=right;points=[];portConstraint=eastwest;" vertex="1" parent="3XaSXXcbDHOcGcoVshW3-453">
          <mxGeometry y="166" width="560" height="8" as="geometry" />
        </mxCell>
        <mxCell id="3XaSXXcbDHOcGcoVshW3-461" value="+Venta(Pieza pieza, Date fecha, double precioFinal, Cliente ganador, VentasManager userManager) &#xa;" style="text;align=left;verticalAlign=top;spacingLeft=4;spacingRight=4;overflow=hidden;rotatable=0;points=[[0,0.5],[1,0.5]];portConstraint=eastwest;fontStyle=0" vertex="1" parent="3XaSXXcbDHOcGcoVshW3-453">
          <mxGeometry y="174" width="560" height="26" as="geometry" />
        </mxCell>
        <mxCell id="3XaSXXcbDHOcGcoVshW3-462" value="+getGanador(): Cliente&#xa;" style="text;align=left;verticalAlign=top;spacingLeft=4;spacingRight=4;overflow=hidden;rotatable=0;points=[[0,0.5],[1,0.5]];portConstraint=eastwest;fontStyle=0" vertex="1" parent="3XaSXXcbDHOcGcoVshW3-453">
          <mxGeometry y="200" width="560" height="26" as="geometry" />
        </mxCell>
        <mxCell id="3XaSXXcbDHOcGcoVshW3-463" value="+setGanador(Cliente ganador): void&#xa;" style="text;align=left;verticalAlign=top;spacingLeft=4;spacingRight=4;overflow=hidden;rotatable=0;points=[[0,0.5],[1,0.5]];portConstraint=eastwest;fontStyle=0" vertex="1" parent="3XaSXXcbDHOcGcoVshW3-453">
          <mxGeometry y="226" width="560" height="26" as="geometry" />
        </mxCell>
        <mxCell id="3XaSXXcbDHOcGcoVshW3-464" value="+getPrecioFinal(): double&#xa;" style="text;align=left;verticalAlign=top;spacingLeft=4;spacingRight=4;overflow=hidden;rotatable=0;points=[[0,0.5],[1,0.5]];portConstraint=eastwest;fontStyle=0" vertex="1" parent="3XaSXXcbDHOcGcoVshW3-453">
          <mxGeometry y="252" width="560" height="26" as="geometry" />
        </mxCell>
        <mxCell id="3XaSXXcbDHOcGcoVshW3-465" value="+setPrecioFinal(double precioFinal): void&#xa;" style="text;align=left;verticalAlign=top;spacingLeft=4;spacingRight=4;overflow=hidden;rotatable=0;points=[[0,0.5],[1,0.5]];portConstraint=eastwest;fontStyle=0" vertex="1" parent="3XaSXXcbDHOcGcoVshW3-453">
          <mxGeometry y="278" width="560" height="22" as="geometry" />
        </mxCell>
        <mxCell id="3XaSXXcbDHOcGcoVshW3-466" value="+getPieza(): Pieza&#xa;" style="text;align=left;verticalAlign=top;spacingLeft=4;spacingRight=4;overflow=hidden;rotatable=0;points=[[0,0.5],[1,0.5]];portConstraint=eastwest;fontStyle=0" vertex="1" parent="3XaSXXcbDHOcGcoVshW3-453">
          <mxGeometry y="300" width="560" height="22" as="geometry" />
        </mxCell>
        <mxCell id="3XaSXXcbDHOcGcoVshW3-467" value="+getFecha(): Date&#xa;" style="text;align=left;verticalAlign=top;spacingLeft=4;spacingRight=4;overflow=hidden;rotatable=0;points=[[0,0.5],[1,0.5]];portConstraint=eastwest;fontStyle=0" vertex="1" parent="3XaSXXcbDHOcGcoVshW3-453">
          <mxGeometry y="322" width="560" height="22" as="geometry" />
        </mxCell>
        <mxCell id="3XaSXXcbDHOcGcoVshW3-519" value="+getTipoVenta(): String&#xa;" style="text;align=left;verticalAlign=top;spacingLeft=4;spacingRight=4;overflow=hidden;rotatable=0;points=[[0,0.5],[1,0.5]];portConstraint=eastwest;fontStyle=0" vertex="1" parent="3XaSXXcbDHOcGcoVshW3-453">
          <mxGeometry y="344" width="560" height="22" as="geometry" />
        </mxCell>
        <mxCell id="3XaSXXcbDHOcGcoVshW3-468" value="+venderPieza(): void&#xa;" style="text;align=left;verticalAlign=top;spacingLeft=4;spacingRight=4;overflow=hidden;rotatable=0;points=[[0,0.5],[1,0.5]];portConstraint=eastwest;fontStyle=0" vertex="1" parent="3XaSXXcbDHOcGcoVshW3-453">
          <mxGeometry y="366" width="560" height="22" as="geometry" />
        </mxCell>
        <mxCell id="3XaSXXcbDHOcGcoVshW3-469" style="edgeStyle=orthogonalEdgeStyle;rounded=0;orthogonalLoop=1;jettySize=auto;html=1;endArrow=block;endFill=0;" edge="1" parent="3XaSXXcbDHOcGcoVshW3-436" source="3XaSXXcbDHOcGcoVshW3-471" target="3XaSXXcbDHOcGcoVshW3-453">
          <mxGeometry relative="1" as="geometry">
            <Array as="points">
              <mxPoint x="1690" y="200" />
              <mxPoint x="1690" y="200" />
            </Array>
          </mxGeometry>
        </mxCell>
        <mxCell id="3XaSXXcbDHOcGcoVshW3-470" value="extends" style="edgeLabel;html=1;align=center;verticalAlign=middle;resizable=0;points=[];" vertex="1" connectable="0" parent="3XaSXXcbDHOcGcoVshW3-469">
          <mxGeometry x="-0.6457" relative="1" as="geometry">
            <mxPoint y="-11" as="offset" />
          </mxGeometry>
        </mxCell>
        <mxCell id="3XaSXXcbDHOcGcoVshW3-471" value="VentaFija" style="swimlane;fontStyle=0;align=center;verticalAlign=top;childLayout=stackLayout;horizontal=1;startSize=26;horizontalStack=0;resizeParent=1;resizeLast=0;collapsible=1;marginBottom=0;rounded=0;shadow=0;strokeWidth=1;" vertex="1" parent="3XaSXXcbDHOcGcoVshW3-436">
          <mxGeometry x="1660" y="150" width="330" height="122" as="geometry">
            <mxRectangle x="550" y="140" width="160" height="26" as="alternateBounds" />
          </mxGeometry>
        </mxCell>
        <mxCell id="3XaSXXcbDHOcGcoVshW3-473" value="" style="line;html=1;strokeWidth=1;align=left;verticalAlign=middle;spacingTop=-1;spacingLeft=3;spacingRight=3;rotatable=0;labelPosition=right;points=[];portConstraint=eastwest;" vertex="1" parent="3XaSXXcbDHOcGcoVshW3-471">
          <mxGeometry y="26" width="330" height="8" as="geometry" />
        </mxCell>
        <mxCell id="3XaSXXcbDHOcGcoVshW3-474" value="+VentaFija(Pieza pieza, Date fecha, double precioFinal, &#xa;Cliente ganador, VentasManager userManager)&#xa;" style="text;align=left;verticalAlign=top;spacingLeft=4;spacingRight=4;overflow=hidden;rotatable=0;points=[[0,0.5],[1,0.5]];portConstraint=eastwest;fontStyle=0" vertex="1" parent="3XaSXXcbDHOcGcoVshW3-471">
          <mxGeometry y="34" width="330" height="36" as="geometry" />
        </mxCell>
        <mxCell id="3XaSXXcbDHOcGcoVshW3-521" value="+getTipoVenta(): String&#xa;" style="text;align=left;verticalAlign=top;spacingLeft=4;spacingRight=4;overflow=hidden;rotatable=0;points=[[0,0.5],[1,0.5]];portConstraint=eastwest;fontStyle=0" vertex="1" parent="3XaSXXcbDHOcGcoVshW3-471">
          <mxGeometry y="70" width="330" height="26" as="geometry" />
        </mxCell>
        <mxCell id="3XaSXXcbDHOcGcoVshW3-475" value="+venderPieza(): void&#xa;" style="text;align=left;verticalAlign=top;spacingLeft=4;spacingRight=4;overflow=hidden;rotatable=0;points=[[0,0.5],[1,0.5]];portConstraint=eastwest;fontStyle=0" vertex="1" parent="3XaSXXcbDHOcGcoVshW3-471">
          <mxGeometry y="96" width="330" height="26" as="geometry" />
        </mxCell>
        <mxCell id="3XaSXXcbDHOcGcoVshW3-476" style="edgeStyle=orthogonalEdgeStyle;rounded=0;orthogonalLoop=1;jettySize=auto;html=1;endArrow=block;endFill=0;" edge="1" parent="3XaSXXcbDHOcGcoVshW3-436" source="3XaSXXcbDHOcGcoVshW3-478" target="3XaSXXcbDHOcGcoVshW3-453">
          <mxGeometry relative="1" as="geometry">
            <Array as="points">
              <mxPoint x="1600" y="410" />
              <mxPoint x="1600" y="410" />
            </Array>
          </mxGeometry>
        </mxCell>
        <mxCell id="3XaSXXcbDHOcGcoVshW3-477" value="extends" style="edgeLabel;html=1;align=center;verticalAlign=middle;resizable=0;points=[];" vertex="1" connectable="0" parent="3XaSXXcbDHOcGcoVshW3-476">
          <mxGeometry x="-0.8428" y="1" relative="1" as="geometry">
            <mxPoint x="-13" y="-12" as="offset" />
          </mxGeometry>
        </mxCell>
        <mxCell id="3XaSXXcbDHOcGcoVshW3-478" value="Subasta" style="swimlane;fontStyle=0;align=center;verticalAlign=top;childLayout=stackLayout;horizontal=1;startSize=30;horizontalStack=0;resizeParent=1;resizeLast=0;collapsible=1;marginBottom=0;rounded=0;shadow=0;strokeWidth=1;" vertex="1" parent="3XaSXXcbDHOcGcoVshW3-436">
          <mxGeometry x="1625" y="330" width="400" height="280" as="geometry">
            <mxRectangle x="550" y="140" width="160" height="26" as="alternateBounds" />
          </mxGeometry>
        </mxCell>
        <mxCell id="3XaSXXcbDHOcGcoVshW3-479" value="-finalizada: boolean&#xa;" style="text;align=left;verticalAlign=top;spacingLeft=4;spacingRight=4;overflow=hidden;rotatable=0;points=[[0,0.5],[1,0.5]];portConstraint=eastwest;fontStyle=0" vertex="1" parent="3XaSXXcbDHOcGcoVshW3-478">
          <mxGeometry y="30" width="400" height="26" as="geometry" />
        </mxCell>
        <mxCell id="3XaSXXcbDHOcGcoVshW3-480" value="-compradores: List&lt;Cliente&gt;&#xa;&#xa;" style="text;align=left;verticalAlign=top;spacingLeft=4;spacingRight=4;overflow=hidden;rotatable=0;points=[[0,0.5],[1,0.5]];portConstraint=eastwest;fontStyle=0" vertex="1" parent="3XaSXXcbDHOcGcoVshW3-478">
          <mxGeometry y="56" width="400" height="26" as="geometry" />
        </mxCell>
        <mxCell id="3XaSXXcbDHOcGcoVshW3-483" value="" style="line;html=1;strokeWidth=1;align=left;verticalAlign=middle;spacingTop=-1;spacingLeft=3;spacingRight=3;rotatable=0;labelPosition=right;points=[];portConstraint=eastwest;" vertex="1" parent="3XaSXXcbDHOcGcoVshW3-478">
          <mxGeometry y="82" width="400" height="8" as="geometry" />
        </mxCell>
        <mxCell id="3XaSXXcbDHOcGcoVshW3-484" value="+Subasta(Pieza pieza, Date fecha, double precioFinal, Cliente ganador, &#xa;VentasManager ventasManager, boolean finalizada, List&lt;Cliente&gt; compradores)&#xa;" style="text;align=left;verticalAlign=top;spacingLeft=4;spacingRight=4;overflow=hidden;rotatable=0;points=[[0,0.5],[1,0.5]];portConstraint=eastwest;fontStyle=0" vertex="1" parent="3XaSXXcbDHOcGcoVshW3-478">
          <mxGeometry y="90" width="400" height="38" as="geometry" />
        </mxCell>
        <mxCell id="3XaSXXcbDHOcGcoVshW3-485" value="+getTipoVenta(): String&#xa;" style="text;align=left;verticalAlign=top;spacingLeft=4;spacingRight=4;overflow=hidden;rotatable=0;points=[[0,0.5],[1,0.5]];portConstraint=eastwest;fontStyle=0" vertex="1" parent="3XaSXXcbDHOcGcoVshW3-478">
          <mxGeometry y="128" width="400" height="26" as="geometry" />
        </mxCell>
        <mxCell id="3XaSXXcbDHOcGcoVshW3-486" value="+isFinalizada(): boolean&#xa;" style="text;align=left;verticalAlign=top;spacingLeft=4;spacingRight=4;overflow=hidden;rotatable=0;points=[[0,0.5],[1,0.5]];portConstraint=eastwest;fontStyle=0" vertex="1" parent="3XaSXXcbDHOcGcoVshW3-478">
          <mxGeometry y="154" width="400" height="26" as="geometry" />
        </mxCell>
        <mxCell id="3XaSXXcbDHOcGcoVshW3-487" value="+setFinalizada(): void&#xa;" style="text;align=left;verticalAlign=top;spacingLeft=4;spacingRight=4;overflow=hidden;rotatable=0;points=[[0,0.5],[1,0.5]];portConstraint=eastwest;fontStyle=0" vertex="1" parent="3XaSXXcbDHOcGcoVshW3-478">
          <mxGeometry y="180" width="400" height="26" as="geometry" />
        </mxCell>
        <mxCell id="3XaSXXcbDHOcGcoVshW3-488" value="+getCompradores(): List&lt;Cliente&gt;&#xa;" style="text;align=left;verticalAlign=top;spacingLeft=4;spacingRight=4;overflow=hidden;rotatable=0;points=[[0,0.5],[1,0.5]];portConstraint=eastwest;fontStyle=0" vertex="1" parent="3XaSXXcbDHOcGcoVshW3-478">
          <mxGeometry y="206" width="400" height="22" as="geometry" />
        </mxCell>
        <mxCell id="3XaSXXcbDHOcGcoVshW3-489" value="+venderPieza(): void&#xa;" style="text;align=left;verticalAlign=top;spacingLeft=4;spacingRight=4;overflow=hidden;rotatable=0;points=[[0,0.5],[1,0.5]];portConstraint=eastwest;fontStyle=0" vertex="1" parent="3XaSXXcbDHOcGcoVshW3-478">
          <mxGeometry y="228" width="400" height="22" as="geometry" />
        </mxCell>
        <mxCell id="3XaSXXcbDHOcGcoVshW3-490" value="+getResultado(): String&#xa;" style="text;align=left;verticalAlign=top;spacingLeft=4;spacingRight=4;overflow=hidden;rotatable=0;points=[[0,0.5],[1,0.5]];portConstraint=eastwest;fontStyle=0" vertex="1" parent="3XaSXXcbDHOcGcoVshW3-478">
          <mxGeometry y="250" width="400" height="22" as="geometry" />
        </mxCell>
        <mxCell id="3XaSXXcbDHOcGcoVshW3-509" style="edgeStyle=orthogonalEdgeStyle;rounded=0;orthogonalLoop=1;jettySize=auto;html=1;" edge="1" parent="3XaSXXcbDHOcGcoVshW3-0" source="3XaSXXcbDHOcGcoVshW3-77" target="3XaSXXcbDHOcGcoVshW3-441">
          <mxGeometry relative="1" as="geometry">
            <Array as="points">
              <mxPoint x="1760" y="440" />
              <mxPoint x="2240" y="440" />
              <mxPoint x="2240" y="1300" />
            </Array>
          </mxGeometry>
        </mxCell>
        <mxCell id="3XaSXXcbDHOcGcoVshW3-513" value="ventasManager" style="edgeLabel;html=1;align=center;verticalAlign=middle;resizable=0;points=[];" vertex="1" connectable="0" parent="3XaSXXcbDHOcGcoVshW3-509">
          <mxGeometry x="-0.9669" y="-2" relative="1" as="geometry">
            <mxPoint as="offset" />
          </mxGeometry>
        </mxCell>
        <mxCell id="3XaSXXcbDHOcGcoVshW3-514" value="1" style="edgeLabel;html=1;align=center;verticalAlign=middle;resizable=0;points=[];" vertex="1" connectable="0" parent="3XaSXXcbDHOcGcoVshW3-509">
          <mxGeometry x="0.9751" y="-3" relative="1" as="geometry">
            <mxPoint x="-1" y="-13" as="offset" />
          </mxGeometry>
        </mxCell>
        <mxCell id="3XaSXXcbDHOcGcoVshW3-510" style="edgeStyle=orthogonalEdgeStyle;rounded=0;orthogonalLoop=1;jettySize=auto;html=1;" edge="1" parent="3XaSXXcbDHOcGcoVshW3-0" source="3XaSXXcbDHOcGcoVshW3-441" target="3XaSXXcbDHOcGcoVshW3-77">
          <mxGeometry relative="1" as="geometry">
            <Array as="points">
              <mxPoint x="2190" y="1350" />
              <mxPoint x="2190" y="480" />
              <mxPoint x="1550" y="480" />
            </Array>
          </mxGeometry>
        </mxCell>
        <mxCell id="3XaSXXcbDHOcGcoVshW3-511" value="1" style="edgeLabel;html=1;align=center;verticalAlign=middle;resizable=0;points=[];" vertex="1" connectable="0" parent="3XaSXXcbDHOcGcoVshW3-510">
          <mxGeometry x="0.9513" y="-2" relative="1" as="geometry">
            <mxPoint x="8" y="-26" as="offset" />
          </mxGeometry>
        </mxCell>
        <mxCell id="3XaSXXcbDHOcGcoVshW3-512" value="galeria" style="edgeLabel;html=1;align=center;verticalAlign=middle;resizable=0;points=[];" vertex="1" connectable="0" parent="3XaSXXcbDHOcGcoVshW3-510">
          <mxGeometry x="-0.9714" y="1" relative="1" as="geometry">
            <mxPoint y="-11" as="offset" />
          </mxGeometry>
        </mxCell>
        <mxCell id="3XaSXXcbDHOcGcoVshW3-515" style="edgeStyle=orthogonalEdgeStyle;rounded=0;orthogonalLoop=1;jettySize=auto;html=1;" edge="1" parent="3XaSXXcbDHOcGcoVshW3-0" source="3XaSXXcbDHOcGcoVshW3-319" target="3XaSXXcbDHOcGcoVshW3-453">
          <mxGeometry relative="1" as="geometry">
            <Array as="points">
              <mxPoint x="2620" y="910" />
              <mxPoint x="3490" y="910" />
            </Array>
          </mxGeometry>
        </mxCell>
        <mxCell id="3XaSXXcbDHOcGcoVshW3-516" value="Lista de Ventas" style="edgeLabel;html=1;align=center;verticalAlign=middle;resizable=0;points=[];" vertex="1" connectable="0" parent="3XaSXXcbDHOcGcoVshW3-515">
          <mxGeometry x="-0.9584" y="-2" relative="1" as="geometry">
            <mxPoint as="offset" />
          </mxGeometry>
        </mxCell>
        <mxCell id="3XaSXXcbDHOcGcoVshW3-517" value="ventas" style="edgeLabel;html=1;align=center;verticalAlign=middle;resizable=0;points=[];rotation=-90;" vertex="1" connectable="0" parent="3XaSXXcbDHOcGcoVshW3-515">
          <mxGeometry x="0.9599" y="-2" relative="1" as="geometry">
            <mxPoint x="-8" as="offset" />
          </mxGeometry>
        </mxCell>
        <mxCell id="3XaSXXcbDHOcGcoVshW3-518" value="0..*" style="edgeLabel;html=1;align=center;verticalAlign=middle;resizable=0;points=[];rotation=-90;" vertex="1" connectable="0" parent="3XaSXXcbDHOcGcoVshW3-515">
          <mxGeometry x="0.9375" y="1" relative="1" as="geometry">
            <mxPoint x="9" y="25" as="offset" />
          </mxGeometry>
        </mxCell>
      </root>
    </mxGraphModel>
  </diagram>
</mxfile>
